<?xml version="1.0" encoding="UTF-8" standalone="no"?><svg xmlns="http://www.w3.org/2000/svg" xmlns:xlink="http://www.w3.org/1999/xlink" clip-rule="evenodd" stroke-miterlimit="10" viewBox="0 0 1024 768"><desc>SVG generated by Keynote</desc><defs></defs><g transform="matrix(1.00, 0.00, -0.00, -1.00, 0.0, 768.0)"><path d="M 0.0 768.0 L 1024.0 768.0 L 1024.0 0.0 L 0.0 0.0 Z M 0.0 768.0 " fill="#000000"></path><text xml:space="preserve" font-family="ChalkboardSE-Regular,Chalkboard SE" font-size="60.0" fill="#7980FF" transform="matrix(1.00, 0.00, -0.00, -1.00, 237.9, 560.9)">f</text><text xml:space="preserve" font-family="ChalkboardSE-Regular,Chalkboard SE" font-size="60.0" fill="#7980FF" transform="matrix(1.00, 0.00, -0.00, -1.00, 263.8, 560.9)">u</text><text xml:space="preserve" font-family="ChalkboardSE-Regular,Chalkboard SE" font-size="60.0" fill="#7980FF" transform="matrix(1.00, 0.00, -0.00, -1.00, 296.4, 560.9)">n</text><text xml:space="preserve" font-family="ChalkboardSE-Regular,Chalkboard SE" font-size="60.0" fill="#7980FF" transform="matrix(1.00, 0.00, -0.00, -1.00, 327.1, 560.9)">c</text><text xml:space="preserve" font-family="ChalkboardSE-Regular,Chalkboard SE" font-size="60.0" fill="#7980FF" transform="matrix(1.00, 0.00, -0.00, -1.00, 354.5, 560.9)">t</text><text xml:space="preserve" font-family="ChalkboardSE-Regular,Chalkboard SE" font-size="60.0" fill="#7980FF" transform="matrix(1.00, 0.00, -0.00, -1.00, 382.3, 560.9)">i</text><text xml:space="preserve" font-family="ChalkboardSE-Regular,Chalkboard SE" font-size="60.0" fill="#7980FF" transform="matrix(1.00, 0.00, -0.00, -1.00, 397.3, 560.9)">o</text><text xml:space="preserve" font-family="ChalkboardSE-Regular,Chalkboard SE" font-size="60.0" fill="#7980FF" transform="matrix(1.00, 0.00, -0.00, -1.00, 428.1, 560.9)">n</text><text xml:space="preserve" font-family="ChalkboardSE-Regular,Chalkboard SE" font-size="60.0" fill="#FEFFFF" transform="matrix(1.00, 0.00, -0.00, -1.00, 458.6, 560.9)"> </text><text xml:space="preserve" font-family="ChalkboardSE-Regular,Chalkboard SE" font-size="60.0" fill="#FF9300" transform="matrix(1.00, 0.00, -0.00, -1.00, 481.6, 560.9)">d</text><text xml:space="preserve" font-family="ChalkboardSE-Regular,Chalkboard SE" font-size="60.0" fill="#FF9300" transform="matrix(1.00, 0.00, -0.00, -1.00, 512.4, 560.9)">i</text><text xml:space="preserve" font-family="ChalkboardSE-Regular,Chalkboard SE" font-size="60.0" fill="#FF9300" transform="matrix(1.00, 0.00, -0.00, -1.00, 527.4, 560.9)">s</text><text xml:space="preserve" font-family="ChalkboardSE-Regular,Chalkboard SE" font-size="60.0" fill="#FF9300" transform="matrix(1.00, 0.00, -0.00, -1.00, 552.6, 560.9)">c</text><text xml:space="preserve" font-family="ChalkboardSE-Regular,Chalkboard SE" font-size="60.0" fill="#FF9300" transform="matrix(1.00, 0.00, -0.00, -1.00, 582.2, 560.9)">l</text><text xml:space="preserve" font-family="ChalkboardSE-Regular,Chalkboard SE" font-size="60.0" fill="#FF9300" transform="matrix(1.00, 0.00, -0.00, -1.00, 596.2, 560.9)">a</text><text xml:space="preserve" font-family="ChalkboardSE-Regular,Chalkboard SE" font-size="60.0" fill="#FF9300" transform="matrix(1.00, 0.00, -0.00, -1.00, 628.4, 560.9)">i</text><text xml:space="preserve" font-family="ChalkboardSE-Regular,Chalkboard SE" font-size="60.0" fill="#FF9300" transform="matrix(1.00, 0.00, -0.00, -1.00, 643.3, 560.9)">m</text><text xml:space="preserve" font-family="ChalkboardSE-Regular,Chalkboard SE" font-size="60.0" fill="#FF9300" transform="matrix(1.00, 0.00, -0.00, -1.00, 689.0, 560.9)">e</text><text xml:space="preserve" font-family="ChalkboardSE-Regular,Chalkboard SE" font-size="60.0" fill="#FF9300" transform="matrix(1.00, 0.00, -0.00, -1.00, 721.9, 560.9)">r</text><text xml:space="preserve" font-family="ChalkboardSE-Regular,Chalkboard SE" font-size="60.0" fill="#FF9300" transform="matrix(1.00, 0.00, -0.00, -1.00, 748.2, 560.9)">(</text><text xml:space="preserve" font-family="ChalkboardSE-Regular,Chalkboard SE" font-size="60.0" fill="#FF9300" transform="matrix(1.00, 0.00, -0.00, -1.00, 767.0, 560.9)">)</text><text xml:space="preserve" font-family="ComicSansMS,Comic Sans MS" font-size="37.5" fill="#FEFFFF" transform="matrix(1.00, 0.00, -0.00, -1.00, 76.7, 389.1)">•</text><text xml:space="preserve" font-family="ComicSansMS,Comic Sans MS" font-size="50.0" fill="#FEFFFF" transform="matrix(1.00, 0.00, -0.00, -1.00, 122.8, 383.7)">t</text><text xml:space="preserve" font-family="ComicSansMS,Comic Sans MS" font-size="50.0" fill="#FEFFFF" transform="matrix(1.00, 0.00, -0.00, -1.00, 146.3, 383.7)">h</text><text xml:space="preserve" font-family="ComicSansMS,Comic Sans MS" font-size="50.0" fill="#FEFFFF" transform="matrix(1.00, 0.00, -0.00, -1.00, 175.2, 383.7)">i</text><text xml:space="preserve" font-family="ComicSansMS,Comic Sans MS" font-size="50.0" fill="#FEFFFF" transform="matrix(1.00, 0.00, -0.00, -1.00, 189.2, 383.7)">s</text><text xml:space="preserve" font-family="ComicSansMS,Comic Sans MS" font-size="50.0" fill="#FEFFFF" transform="matrix(1.00, 0.00, -0.00, -1.00, 213.5, 383.7)"> </text><text xml:space="preserve" font-family="ComicSansMS,Comic Sans MS" font-size="50.0" fill="#FEFFFF" transform="matrix(1.00, 0.00, -0.00, -1.00, 228.5, 383.7)">i</text><text xml:space="preserve" font-family="ComicSansMS,Comic Sans MS" font-size="50.0" fill="#FEFFFF" transform="matrix(1.00, 0.00, -0.00, -1.00, 242.5, 383.7)">s</text><text xml:space="preserve" font-family="ComicSansMS,Comic Sans MS" font-size="50.0" fill="#FEFFFF" transform="matrix(1.00, 0.00, -0.00, -1.00, 266.8, 383.7)"> </text><text xml:space="preserve" font-family="ComicSansMS,Comic Sans MS" font-size="50.0" fill="#FEFFFF" transform="matrix(1.00, 0.00, -0.00, -1.00, 281.8, 383.7)">a</text><text xml:space="preserve" font-family="ComicSansMS,Comic Sans MS" font-size="50.0" fill="#FEFFFF" transform="matrix(1.00, 0.00, -0.00, -1.00, 307.3, 383.7)"> </text><text xml:space="preserve" font-family="ComicSansMS,Comic Sans MS" font-size="50.0" fill="#FEFFFF" transform="matrix(1.00, 0.00, -0.00, -1.00, 322.3, 383.7)">w</text><text xml:space="preserve" font-family="ComicSansMS,Comic Sans MS" font-size="50.0" fill="#FEFFFF" transform="matrix(1.00, 0.00, -0.00, -1.00, 356.5, 383.7)">o</text><text xml:space="preserve" font-family="ComicSansMS,Comic Sans MS" font-size="50.0" fill="#FEFFFF" transform="matrix(1.00, 0.00, -0.00, -1.00, 382.8, 383.7)">r</text><text xml:space="preserve" font-family="ComicSansMS,Comic Sans MS" font-size="50.0" fill="#FEFFFF" transform="matrix(1.00, 0.00, -0.00, -1.00, 406.8, 383.7)">k</text><text xml:space="preserve" font-family="ComicSansMS,Comic Sans MS" font-size="50.0" fill="#FEFFFF" transform="matrix(1.00, 0.00, -0.00, -1.00, 433.8, 383.7)">s</text><text xml:space="preserve" font-family="ComicSansMS,Comic Sans MS" font-size="50.0" fill="#FEFFFF" transform="matrix(1.00, 0.00, -0.00, -1.00, 458.1, 383.7)">h</text><text xml:space="preserve" font-family="ComicSansMS,Comic Sans MS" font-size="50.0" fill="#FEFFFF" transform="matrix(1.00, 0.00, -0.00, -1.00, 487.0, 383.7)">o</text><text xml:space="preserve" font-family="ComicSansMS,Comic Sans MS" font-size="50.0" fill="#FEFFFF" transform="matrix(1.00, 0.00, -0.00, -1.00, 513.3, 383.7)">p</text><text xml:space="preserve" font-family="ComicSansMS,Comic Sans MS" font-size="50.0" fill="#FEFFFF" transform="matrix(1.00, 0.00, -0.00, -1.00, 540.0, 383.7)"> </text><text xml:space="preserve" font-family="ComicSansMS,Comic Sans MS" font-size="37.5" fill="#FEFFFF" transform="matrix(1.00, 0.00, -0.00, -1.00, 76.7, 319.1)">•</text><text xml:space="preserve" font-family="ComicSansMS,Comic Sans MS" font-size="50.0" fill="#FEFFFF" transform="matrix(1.00, 0.00, -0.00, -1.00, 122.8, 313.7)">p</text><text xml:space="preserve" font-family="ComicSansMS,Comic Sans MS" font-size="50.0" fill="#FEFFFF" transform="matrix(1.00, 0.00, -0.00, -1.00, 149.5, 313.7)">l</text><text xml:space="preserve" font-family="ComicSansMS,Comic Sans MS" font-size="50.0" fill="#FEFFFF" transform="matrix(1.00, 0.00, -0.00, -1.00, 163.2, 313.7)">e</text><text xml:space="preserve" font-family="ComicSansMS,Comic Sans MS" font-size="50.0" fill="#FEFFFF" transform="matrix(1.00, 0.00, -0.00, -1.00, 190.5, 313.7)">a</text><text xml:space="preserve" font-family="ComicSansMS,Comic Sans MS" font-size="50.0" fill="#FEFFFF" transform="matrix(1.00, 0.00, -0.00, -1.00, 216.1, 313.7)">s</text><text xml:space="preserve" font-family="ComicSansMS,Comic Sans MS" font-size="50.0" fill="#FEFFFF" transform="matrix(1.00, 0.00, -0.00, -1.00, 240.4, 313.7)">e</text><text xml:space="preserve" font-family="ComicSansMS,Comic Sans MS" font-size="50.0" fill="#FEFFFF" transform="matrix(1.00, 0.00, -0.00, -1.00, 267.8, 313.7)"> </text><text xml:space="preserve" font-family="ComicSansMS,Comic Sans MS" font-size="50.0" fill="#FEFFFF" transform="matrix(1.00, 0.00, -0.00, -1.00, 282.8, 313.7)">d</text><text xml:space="preserve" font-family="ComicSansMS,Comic Sans MS" font-size="50.0" fill="#FEFFFF" transform="matrix(1.00, 0.00, -0.00, -1.00, 312.2, 313.7)">o</text><text xml:space="preserve" font-family="ComicSansMS,Comic Sans MS" font-size="50.0" fill="#FEFFFF" transform="matrix(1.00, 0.00, -0.00, -1.00, 338.4, 313.7)">n</text><text xml:space="preserve" font-family="ComicSansMS,Comic Sans MS" font-size="50.0" fill="#FEFFFF" transform="matrix(1.00, 0.00, -0.00, -1.00, 364.6, 313.7)">’</text><text xml:space="preserve" font-family="ComicSansMS,Comic Sans MS" font-size="50.0" fill="#FEFFFF" transform="matrix(1.00, 0.00, -0.00, -1.00, 373.7, 313.7)"> </text><text xml:space="preserve" font-family="ComicSansMS,Comic Sans MS" font-size="50.0" fill="#FEFFFF" transform="matrix(1.00, 0.00, -0.00, -1.00, 388.6, 313.7)">t</text><text xml:space="preserve" font-family="ComicSansMS,Comic Sans MS" font-size="50.0" fill="#FEFFFF" transform="matrix(1.00, 0.00, -0.00, -1.00, 412.2, 313.7)"> </text><text xml:space="preserve" font-family="ComicSansMS,Comic Sans MS" font-size="50.0" fill="#FEFFFF" transform="matrix(1.00, 0.00, -0.00, -1.00, 427.1, 313.7)">b</text><text xml:space="preserve" font-family="ComicSansMS,Comic Sans MS" font-size="50.0" fill="#FEFFFF" transform="matrix(1.00, 0.00, -0.00, -1.00, 456.8, 313.7)">r</text><text xml:space="preserve" font-family="ComicSansMS,Comic Sans MS" font-size="50.0" fill="#FEFFFF" transform="matrix(1.00, 0.00, -0.00, -1.00, 480.8, 313.7)">i</text><text xml:space="preserve" font-family="ComicSansMS,Comic Sans MS" font-size="50.0" fill="#FEFFFF" transform="matrix(1.00, 0.00, -0.00, -1.00, 494.8, 313.7)">n</text><text xml:space="preserve" font-family="ComicSansMS,Comic Sans MS" font-size="50.0" fill="#FEFFFF" transform="matrix(1.00, 0.00, -0.00, -1.00, 521.0, 313.7)">g</text><text xml:space="preserve" font-family="ComicSansMS,Comic Sans MS" font-size="50.0" fill="#FEFFFF" transform="matrix(1.00, 0.00, -0.00, -1.00, 547.6, 313.7)"> </text><text xml:space="preserve" font-family="ComicSansMS,Comic Sans MS" font-size="50.0" fill="#FEFFFF" transform="matrix(1.00, 0.00, -0.00, -1.00, 562.5, 313.7)">i</text><text xml:space="preserve" font-family="ComicSansMS,Comic Sans MS" font-size="50.0" fill="#FEFFFF" transform="matrix(1.00, 0.00, -0.00, -1.00, 576.5, 313.7)">n</text><text xml:space="preserve" font-family="ComicSansMS,Comic Sans MS" font-size="50.0" fill="#FEFFFF" transform="matrix(1.00, 0.00, -0.00, -1.00, 602.7, 313.7)"> </text><text xml:space="preserve" font-family="ComicSansMS,Comic Sans MS" font-size="50.0" fill="#FEFFFF" transform="matrix(1.00, 0.00, -0.00, -1.00, 617.6, 313.7)">h</text><text xml:space="preserve" font-family="ComicSansMS,Comic Sans MS" font-size="50.0" fill="#FEFFFF" transform="matrix(1.00, 0.00, -0.00, -1.00, 646.5, 313.7)">e</text><text xml:space="preserve" font-family="ComicSansMS,Comic Sans MS" font-size="50.0" fill="#FEFFFF" transform="matrix(1.00, 0.00, -0.00, -1.00, 673.9, 313.7)">r</text><text xml:space="preserve" font-family="ComicSansMS,Comic Sans MS" font-size="50.0" fill="#FEFFFF" transform="matrix(1.00, 0.00, -0.00, -1.00, 697.9, 313.7)">e</text><text xml:space="preserve" font-family="ComicSansMS,Comic Sans MS" font-size="50.0" fill="#FEFFFF" transform="matrix(1.00, 0.00, -0.00, -1.00, 725.3, 313.7)"> </text><text xml:space="preserve" font-family="ComicSansMS,Comic Sans MS" font-size="50.0" fill="#FEFFFF" transform="matrix(1.00, 0.00, -0.00, -1.00, 740.3, 313.7)">y</text><text xml:space="preserve" font-family="ComicSansMS,Comic Sans MS" font-size="50.0" fill="#FEFFFF" transform="matrix(1.00, 0.00, -0.00, -1.00, 766.3, 313.7)">o</text><text xml:space="preserve" font-family="ComicSansMS,Comic Sans MS" font-size="50.0" fill="#FEFFFF" transform="matrix(1.00, 0.00, -0.00, -1.00, 792.6, 313.7)">u</text><text xml:space="preserve" font-family="ComicSansMS,Comic Sans MS" font-size="50.0" fill="#FEFFFF" transform="matrix(1.00, 0.00, -0.00, -1.00, 818.6, 313.7)">r</text><text xml:space="preserve" font-family="ComicSansMS,Comic Sans MS" font-size="50.0" fill="#FEFFFF" transform="matrix(1.00, 0.00, -0.00, -1.00, 842.6, 313.7)"> </text><text xml:space="preserve" font-family="ComicSansMS,Comic Sans MS" font-size="50.0" fill="#FEFFFF" transform="matrix(1.00, 0.00, -0.00, -1.00, 122.8, 243.7)">m</text><text xml:space="preserve" font-family="ComicSansMS,Comic Sans MS" font-size="50.0" fill="#FEFFFF" transform="matrix(1.00, 0.00, -0.00, -1.00, 161.6, 243.7)">e</text><text xml:space="preserve" font-family="ComicSansMS,Comic Sans MS" font-size="50.0" fill="#FEFFFF" transform="matrix(1.00, 0.00, -0.00, -1.00, 189.0, 243.7)">m</text><text xml:space="preserve" font-family="ComicSansMS,Comic Sans MS" font-size="50.0" fill="#FEFFFF" transform="matrix(1.00, 0.00, -0.00, -1.00, 227.8, 243.7)">o</text><text xml:space="preserve" font-family="ComicSansMS,Comic Sans MS" font-size="50.0" fill="#FEFFFF" transform="matrix(1.00, 0.00, -0.00, -1.00, 254.1, 243.7)">r</text><text xml:space="preserve" font-family="ComicSansMS,Comic Sans MS" font-size="50.0" fill="#FEFFFF" transform="matrix(1.00, 0.00, -0.00, -1.00, 278.2, 243.7)">i</text><text xml:space="preserve" font-family="ComicSansMS,Comic Sans MS" font-size="50.0" fill="#FEFFFF" transform="matrix(1.00, 0.00, -0.00, -1.00, 292.2, 243.7)">e</text><text xml:space="preserve" font-family="ComicSansMS,Comic Sans MS" font-size="50.0" fill="#FEFFFF" transform="matrix(1.00, 0.00, -0.00, -1.00, 319.6, 243.7)">s</text></g></svg>