<?xml version="1.0" encoding="UTF-8" standalone="no"?><svg xmlns="http://www.w3.org/2000/svg" xmlns:xlink="http://www.w3.org/1999/xlink" clip-rule="evenodd" stroke-miterlimit="10" viewBox="0 0 1024 768"><desc>SVG generated by Keynote</desc><defs></defs><g transform="matrix(1.00, 0.00, -0.00, -1.00, 0.0, 768.0)"><path d="M 0.0 768.0 L 1024.0 768.0 L 1024.0 0.0 L 0.0 0.0 Z M 0.0 768.0 " fill="#000000"></path><image xlink:href="../../1D893AA8-D428-4988-846B-D692116BC80A/assets/21F3530C8067C62485A56D4C6EFE54DF.png" width="601.00" height="185.00" transform="matrix(1.26, 0.00, -0.00, -1.26, 151.3, 690.2)"></image><image xlink:href="../../1D893AA8-D428-4988-846B-D692116BC80A/assets/8D31A9B1658564EBBECC6117D88E88F1.jpeg" width="300.00" height="168.00" transform="matrix(1.00, 0.00, -0.00, -1.00, 703.9, 468.0)"></image><text xml:space="preserve" font-family="ChalkboardSE-Regular,Chalkboard SE" font-size="36.0" fill="#FEFFFF" transform="matrix(1.00, 0.00, -0.00, -1.00, 470.8, 410.2)">a</text><text xml:space="preserve" font-family="ChalkboardSE-Regular,Chalkboard SE" font-size="36.0" fill="#FEFFFF" transform="matrix(1.00, 0.00, -0.00, -1.00, 488.9, 410.2)">f</text><text xml:space="preserve" font-family="ChalkboardSE-Regular,Chalkboard SE" font-size="36.0" fill="#FEFFFF" transform="matrix(1.00, 0.00, -0.00, -1.00, 503.1, 410.2)">t</text><text xml:space="preserve" font-family="ChalkboardSE-Regular,Chalkboard SE" font-size="36.0" fill="#FEFFFF" transform="matrix(1.00, 0.00, -0.00, -1.00, 517.8, 410.2)">e</text><text xml:space="preserve" font-family="ChalkboardSE-Regular,Chalkboard SE" font-size="36.0" fill="#FEFFFF" transform="matrix(1.00, 0.00, -0.00, -1.00, 537.5, 410.2)">r</text><image xlink:href="../../1D893AA8-D428-4988-846B-D692116BC80A/assets/B1D07B4B1C17395A9427D0227A4054EB.png" width="452.00" height="99.00" transform="matrix(1.67, 0.00, -0.00, -1.67, 150.0, 294.9)"></image></g></svg>