<?xml version="1.0" encoding="UTF-8" standalone="no"?><svg xmlns="http://www.w3.org/2000/svg" xmlns:xlink="http://www.w3.org/1999/xlink" clip-rule="evenodd" stroke-miterlimit="10" viewBox="0 0 1024 768"><desc>SVG generated by Keynote</desc><defs><pattern id="patternP1" patternUnits="userSpaceOnUse" width="256" height="256" viewBox="0 0 256 256"><image xlink:href="../../69E4C2E2-6185-4F29-93A3-A8243C0B68C4/assets/6F8357FA1FAA72521781216D197C7995.png" width="256.00" height="256.00"></image></pattern></defs><g transform="matrix(1.00, 0.00, -0.00, -1.00, 0.0, 768.0)"><g><clipPath id="clip0x6080020bf5c0"><path d="M 0.0 768.0 L 1024.0 768.0 L 1024.0 0.0 L 0.0 0.0 Z M 0.0 768.0 "></path></clipPath><g clip-path="url(#clip0x6080020bf5c0)"><path d="M 0.0 0.0 L 1024.0 0.0 L 1024.0 768.0 L 0.0 768.0 Z M 0.0 0.0 " fill="url(#patternP1)"></path></g></g><text xml:space="preserve" font-family="ChalkboardSE-Regular,Chalkboard SE" font-size="26.2" fill="#FEFFFF" transform="matrix(1.00, 0.00, -0.00, -1.00, 15.2, 593.5)">•</text><text xml:space="preserve" font-family="ChalkboardSE-Regular,Chalkboard SE" font-size="35.0" fill="#FEFFFF" transform="matrix(1.00, 0.00, -0.00, -1.00, 48.3, 589.6)">F</text><text xml:space="preserve" font-family="ChalkboardSE-Regular,Chalkboard SE" font-size="35.0" fill="#FEFFFF" transform="matrix(1.00, 0.00, -0.00, -1.00, 65.8, 589.6)">u</text><text xml:space="preserve" font-family="ChalkboardSE-Regular,Chalkboard SE" font-size="35.0" fill="#FEFFFF" transform="matrix(1.00, 0.00, -0.00, -1.00, 84.8, 589.6)">n</text><text xml:space="preserve" font-family="ChalkboardSE-Regular,Chalkboard SE" font-size="35.0" fill="#FEFFFF" transform="matrix(1.00, 0.00, -0.00, -1.00, 102.7, 589.6)">c</text><text xml:space="preserve" font-family="ChalkboardSE-Regular,Chalkboard SE" font-size="35.0" fill="#FEFFFF" transform="matrix(1.00, 0.00, -0.00, -1.00, 118.7, 589.6)">t</text><text xml:space="preserve" font-family="ChalkboardSE-Regular,Chalkboard SE" font-size="35.0" fill="#FEFFFF" transform="matrix(1.00, 0.00, -0.00, -1.00, 134.9, 589.6)">i</text><text xml:space="preserve" font-family="ChalkboardSE-Regular,Chalkboard SE" font-size="35.0" fill="#FEFFFF" transform="matrix(1.00, 0.00, -0.00, -1.00, 143.7, 589.6)">o</text><text xml:space="preserve" font-family="ChalkboardSE-Regular,Chalkboard SE" font-size="35.0" fill="#FEFFFF" transform="matrix(1.00, 0.00, -0.00, -1.00, 161.6, 589.6)">n</text><text xml:space="preserve" font-family="ChalkboardSE-Regular,Chalkboard SE" font-size="35.0" fill="#FEFFFF" transform="matrix(1.00, 0.00, -0.00, -1.00, 179.5, 589.6)"> </text><text xml:space="preserve" font-family="ChalkboardSE-Regular,Chalkboard SE" font-size="35.0" fill="#FEFFFF" transform="matrix(1.00, 0.00, -0.00, -1.00, 192.9, 589.6)">t</text><text xml:space="preserve" font-family="ChalkboardSE-Regular,Chalkboard SE" font-size="35.0" fill="#FEFFFF" transform="matrix(1.00, 0.00, -0.00, -1.00, 208.9, 589.6)">h</text><text xml:space="preserve" font-family="ChalkboardSE-Regular,Chalkboard SE" font-size="35.0" fill="#FEFFFF" transform="matrix(1.00, 0.00, -0.00, -1.00, 227.9, 589.6)">a</text><text xml:space="preserve" font-family="ChalkboardSE-Regular,Chalkboard SE" font-size="35.0" fill="#FEFFFF" transform="matrix(1.00, 0.00, -0.00, -1.00, 244.3, 589.6)">t</text><text xml:space="preserve" font-family="ChalkboardSE-Regular,Chalkboard SE" font-size="35.0" fill="#FEFFFF" transform="matrix(1.00, 0.00, -0.00, -1.00, 260.3, 589.6)"> </text><text xml:space="preserve" font-family="ChalkboardSE-Regular,Chalkboard SE" font-size="35.0" fill="#FEFFFF" transform="matrix(1.00, 0.00, -0.00, -1.00, 273.7, 589.6)">h</text><text xml:space="preserve" font-family="ChalkboardSE-Regular,Chalkboard SE" font-size="35.0" fill="#FEFFFF" transform="matrix(1.00, 0.00, -0.00, -1.00, 292.7, 589.6)">a</text><text xml:space="preserve" font-family="ChalkboardSE-Regular,Chalkboard SE" font-size="35.0" fill="#FEFFFF" transform="matrix(1.00, 0.00, -0.00, -1.00, 311.5, 589.6)">n</text><text xml:space="preserve" font-family="ChalkboardSE-Regular,Chalkboard SE" font-size="35.0" fill="#FEFFFF" transform="matrix(1.00, 0.00, -0.00, -1.00, 331.0, 589.6)">d</text><text xml:space="preserve" font-family="ChalkboardSE-Regular,Chalkboard SE" font-size="35.0" fill="#FEFFFF" transform="matrix(1.00, 0.00, -0.00, -1.00, 348.9, 589.6)">l</text><text xml:space="preserve" font-family="ChalkboardSE-Regular,Chalkboard SE" font-size="35.0" fill="#FEFFFF" transform="matrix(1.00, 0.00, -0.00, -1.00, 357.5, 589.6)">e</text><text xml:space="preserve" font-family="ChalkboardSE-Regular,Chalkboard SE" font-size="35.0" fill="#FEFFFF" transform="matrix(1.00, 0.00, -0.00, -1.00, 375.9, 589.6)"> </text><text xml:space="preserve" font-family="ChalkboardSE-Regular,Chalkboard SE" font-size="35.0" fill="#FEFFFF" transform="matrix(1.00, 0.00, -0.00, -1.00, 389.3, 589.6)">r</text><text xml:space="preserve" font-family="ChalkboardSE-Regular,Chalkboard SE" font-size="35.0" fill="#FEFFFF" transform="matrix(1.00, 0.00, -0.00, -1.00, 403.8, 589.6)">e</text><text xml:space="preserve" font-family="ChalkboardSE-Regular,Chalkboard SE" font-size="35.0" fill="#FEFFFF" transform="matrix(1.00, 0.00, -0.00, -1.00, 422.2, 589.6)">q</text><text xml:space="preserve" font-family="ChalkboardSE-Regular,Chalkboard SE" font-size="35.0" fill="#FEFFFF" transform="matrix(1.00, 0.00, -0.00, -1.00, 440.3, 589.6)">u</text><text xml:space="preserve" font-family="ChalkboardSE-Regular,Chalkboard SE" font-size="35.0" fill="#FEFFFF" transform="matrix(1.00, 0.00, -0.00, -1.00, 458.8, 589.6)">e</text><text xml:space="preserve" font-family="ChalkboardSE-Regular,Chalkboard SE" font-size="35.0" fill="#FEFFFF" transform="matrix(1.00, 0.00, -0.00, -1.00, 478.0, 589.6)">s</text><text xml:space="preserve" font-family="ChalkboardSE-Regular,Chalkboard SE" font-size="35.0" fill="#FEFFFF" transform="matrix(1.00, 0.00, -0.00, -1.00, 491.4, 589.6)">t</text><text xml:space="preserve" font-family="ChalkboardSE-Regular,Chalkboard SE" font-size="35.0" fill="#FEFFFF" transform="matrix(1.00, 0.00, -0.00, -1.00, 507.5, 589.6)">s</text><text xml:space="preserve" font-family="ChalkboardSE-Regular,Chalkboard SE" font-size="35.0" fill="#FEFFFF" transform="matrix(1.00, 0.00, -0.00, -1.00, 522.5, 589.6)">
</text><text xml:space="preserve" font-family="ChalkboardSE-Regular,Chalkboard SE" font-size="35.0" fill="#FEFFFF" transform="matrix(1.00, 0.00, -0.00, -1.00, 522.5, 589.6)"></text><text xml:space="preserve" font-family="ChalkboardSE-Regular,Chalkboard SE" font-size="26.2" fill="#FEFFFF" transform="matrix(1.00, 0.00, -0.00, -1.00, 15.2, 543.5)">•</text><text xml:space="preserve" font-family="ChalkboardSE-Regular,Chalkboard SE" font-size="35.0" fill="#FEFFFF" transform="matrix(1.00, 0.00, -0.00, -1.00, 48.3, 539.6)">A</text><text xml:space="preserve" font-family="ChalkboardSE-Regular,Chalkboard SE" font-size="35.0" fill="#FEFFFF" transform="matrix(1.00, 0.00, -0.00, -1.00, 70.9, 539.6)">s</text><text xml:space="preserve" font-family="ChalkboardSE-Regular,Chalkboard SE" font-size="35.0" fill="#FEFFFF" transform="matrix(1.00, 0.00, -0.00, -1.00, 86.0, 539.6)">s</text><text xml:space="preserve" font-family="ChalkboardSE-Regular,Chalkboard SE" font-size="35.0" fill="#FEFFFF" transform="matrix(1.00, 0.00, -0.00, -1.00, 101.1, 539.6)">o</text><text xml:space="preserve" font-family="ChalkboardSE-Regular,Chalkboard SE" font-size="35.0" fill="#FEFFFF" transform="matrix(1.00, 0.00, -0.00, -1.00, 118.7, 539.6)">c</text><text xml:space="preserve" font-family="ChalkboardSE-Regular,Chalkboard SE" font-size="35.0" fill="#FEFFFF" transform="matrix(1.00, 0.00, -0.00, -1.00, 136.0, 539.6)">i</text><text xml:space="preserve" font-family="ChalkboardSE-Regular,Chalkboard SE" font-size="35.0" fill="#FEFFFF" transform="matrix(1.00, 0.00, -0.00, -1.00, 143.9, 539.6)">a</text><text xml:space="preserve" font-family="ChalkboardSE-Regular,Chalkboard SE" font-size="35.0" fill="#FEFFFF" transform="matrix(1.00, 0.00, -0.00, -1.00, 160.3, 539.6)">t</text><text xml:space="preserve" font-family="ChalkboardSE-Regular,Chalkboard SE" font-size="35.0" fill="#FEFFFF" transform="matrix(1.00, 0.00, -0.00, -1.00, 174.6, 539.6)">e</text><text xml:space="preserve" font-family="ChalkboardSE-Regular,Chalkboard SE" font-size="35.0" fill="#FEFFFF" transform="matrix(1.00, 0.00, -0.00, -1.00, 194.6, 539.6)">d</text><text xml:space="preserve" font-family="ChalkboardSE-Regular,Chalkboard SE" font-size="35.0" fill="#FEFFFF" transform="matrix(1.00, 0.00, -0.00, -1.00, 212.6, 539.6)"> </text><text xml:space="preserve" font-family="ChalkboardSE-Regular,Chalkboard SE" font-size="35.0" fill="#FEFFFF" transform="matrix(1.00, 0.00, -0.00, -1.00, 226.0, 539.6)">w</text><text xml:space="preserve" font-family="ChalkboardSE-Regular,Chalkboard SE" font-size="35.0" fill="#FEFFFF" transform="matrix(1.00, 0.00, -0.00, -1.00, 252.6, 539.6)">i</text><text xml:space="preserve" font-family="ChalkboardSE-Regular,Chalkboard SE" font-size="35.0" fill="#FEFFFF" transform="matrix(1.00, 0.00, -0.00, -1.00, 258.8, 539.6)">t</text><text xml:space="preserve" font-family="ChalkboardSE-Regular,Chalkboard SE" font-size="35.0" fill="#FEFFFF" transform="matrix(1.00, 0.00, -0.00, -1.00, 274.8, 539.6)">h</text><text xml:space="preserve" font-family="ChalkboardSE-Regular,Chalkboard SE" font-size="35.0" fill="#FEFFFF" transform="matrix(1.00, 0.00, -0.00, -1.00, 293.8, 539.6)"> </text><text xml:space="preserve" font-family="ChalkboardSE-Regular,Chalkboard SE" font-size="35.0" fill="#FEFFFF" transform="matrix(1.00, 0.00, -0.00, -1.00, 307.2, 539.6)">a</text><text xml:space="preserve" font-family="ChalkboardSE-Regular,Chalkboard SE" font-size="35.0" fill="#FEFFFF" transform="matrix(1.00, 0.00, -0.00, -1.00, 326.0, 539.6)">n</text><text xml:space="preserve" font-family="ChalkboardSE-Regular,Chalkboard SE" font-size="35.0" fill="#FEFFFF" transform="matrix(1.00, 0.00, -0.00, -1.00, 343.8, 539.6)"> </text><text xml:space="preserve" font-family="ChalkboardSE-Regular,Chalkboard SE" font-size="35.0" fill="#FEFFFF" transform="matrix(1.00, 0.00, -0.00, -1.00, 357.2, 539.6)">o</text><text xml:space="preserve" font-family="ChalkboardSE-Regular,Chalkboard SE" font-size="35.0" fill="#FEFFFF" transform="matrix(1.00, 0.00, -0.00, -1.00, 374.3, 539.6)">b</text><text xml:space="preserve" font-family="ChalkboardSE-Regular,Chalkboard SE" font-size="35.0" fill="#FEFFFF" transform="matrix(1.00, 0.00, -0.00, -1.00, 393.9, 539.6)">j</text><text xml:space="preserve" font-family="ChalkboardSE-Regular,Chalkboard SE" font-size="35.0" fill="#FEFFFF" transform="matrix(1.00, 0.00, -0.00, -1.00, 407.4, 539.6)">e</text><text xml:space="preserve" font-family="ChalkboardSE-Regular,Chalkboard SE" font-size="35.0" fill="#FEFFFF" transform="matrix(1.00, 0.00, -0.00, -1.00, 426.4, 539.6)">c</text><text xml:space="preserve" font-family="ChalkboardSE-Regular,Chalkboard SE" font-size="35.0" fill="#FEFFFF" transform="matrix(1.00, 0.00, -0.00, -1.00, 442.4, 539.6)">t</text><text xml:space="preserve" font-family="ChalkboardSE-Regular,Chalkboard SE" font-size="35.0" fill="#FEFFFF" transform="matrix(1.00, 0.00, -0.00, -1.00, 458.5, 539.6)"> </text><text xml:space="preserve" font-family="ChalkboardSE-Regular,Chalkboard SE" font-size="35.0" fill="#FEFFFF" transform="matrix(1.00, 0.00, -0.00, -1.00, 471.9, 539.6)">c</text><text xml:space="preserve" font-family="ChalkboardSE-Regular,Chalkboard SE" font-size="35.0" fill="#FEFFFF" transform="matrix(1.00, 0.00, -0.00, -1.00, 489.1, 539.6)">r</text><text xml:space="preserve" font-family="ChalkboardSE-Regular,Chalkboard SE" font-size="35.0" fill="#FEFFFF" transform="matrix(1.00, 0.00, -0.00, -1.00, 503.6, 539.6)">e</text><text xml:space="preserve" font-family="ChalkboardSE-Regular,Chalkboard SE" font-size="35.0" fill="#FEFFFF" transform="matrix(1.00, 0.00, -0.00, -1.00, 522.0, 539.6)">a</text><text xml:space="preserve" font-family="ChalkboardSE-Regular,Chalkboard SE" font-size="35.0" fill="#FEFFFF" transform="matrix(1.00, 0.00, -0.00, -1.00, 538.4, 539.6)">t</text><text xml:space="preserve" font-family="ChalkboardSE-Regular,Chalkboard SE" font-size="35.0" fill="#FEFFFF" transform="matrix(1.00, 0.00, -0.00, -1.00, 552.7, 539.6)">e</text><text xml:space="preserve" font-family="ChalkboardSE-Regular,Chalkboard SE" font-size="35.0" fill="#FEFFFF" transform="matrix(1.00, 0.00, -0.00, -1.00, 572.7, 539.6)">d</text><text xml:space="preserve" font-family="ChalkboardSE-Regular,Chalkboard SE" font-size="35.0" fill="#FEFFFF" transform="matrix(1.00, 0.00, -0.00, -1.00, 590.7, 539.6)"> </text><text xml:space="preserve" font-family="ChalkboardSE-Regular,Chalkboard SE" font-size="35.0" fill="#FEFFFF" transform="matrix(1.00, 0.00, -0.00, -1.00, 604.1, 539.6)">w</text><text xml:space="preserve" font-family="ChalkboardSE-Regular,Chalkboard SE" font-size="35.0" fill="#FEFFFF" transform="matrix(1.00, 0.00, -0.00, -1.00, 626.2, 539.6)">/</text><text xml:space="preserve" font-family="ChalkboardSE-Regular,Chalkboard SE" font-size="35.0" fill="#FEFFFF" transform="matrix(1.00, 0.00, -0.00, -1.00, 645.3, 539.6)"> </text><text xml:space="preserve" font-family="ChalkboardSE-Regular,Chalkboard SE" font-size="35.0" fill="#FEFFFF" transform="matrix(1.00, 0.00, -0.00, -1.00, 658.7, 539.6)">c</text><text xml:space="preserve" font-family="ChalkboardSE-Regular,Chalkboard SE" font-size="35.0" fill="#FEFFFF" transform="matrix(1.00, 0.00, -0.00, -1.00, 675.9, 539.6)">r</text><text xml:space="preserve" font-family="ChalkboardSE-Regular,Chalkboard SE" font-size="35.0" fill="#FEFFFF" transform="matrix(1.00, 0.00, -0.00, -1.00, 690.4, 539.6)">e</text><text xml:space="preserve" font-family="ChalkboardSE-Regular,Chalkboard SE" font-size="35.0" fill="#FEFFFF" transform="matrix(1.00, 0.00, -0.00, -1.00, 708.8, 539.6)">a</text><text xml:space="preserve" font-family="ChalkboardSE-Regular,Chalkboard SE" font-size="35.0" fill="#FEFFFF" transform="matrix(1.00, 0.00, -0.00, -1.00, 725.2, 539.6)">t</text><text xml:space="preserve" font-family="ChalkboardSE-Regular,Chalkboard SE" font-size="35.0" fill="#FEFFFF" transform="matrix(1.00, 0.00, -0.00, -1.00, 739.5, 539.6)">e</text><text xml:space="preserve" font-family="ChalkboardSE-Regular,Chalkboard SE" font-size="35.0" fill="#FEFFFF" transform="matrix(1.00, 0.00, -0.00, -1.00, 757.9, 539.6)">S</text><text xml:space="preserve" font-family="ChalkboardSE-Regular,Chalkboard SE" font-size="35.0" fill="#FEFFFF" transform="matrix(1.00, 0.00, -0.00, -1.00, 778.5, 539.6)">e</text><text xml:space="preserve" font-family="ChalkboardSE-Regular,Chalkboard SE" font-size="35.0" fill="#FEFFFF" transform="matrix(1.00, 0.00, -0.00, -1.00, 797.6, 539.6)">r</text><text xml:space="preserve" font-family="ChalkboardSE-Regular,Chalkboard SE" font-size="35.0" fill="#FEFFFF" transform="matrix(1.00, 0.00, -0.00, -1.00, 815.3, 539.6)">v</text><text xml:space="preserve" font-family="ChalkboardSE-Regular,Chalkboard SE" font-size="35.0" fill="#FEFFFF" transform="matrix(1.00, 0.00, -0.00, -1.00, 831.3, 539.6)">e</text><text xml:space="preserve" font-family="ChalkboardSE-Regular,Chalkboard SE" font-size="35.0" fill="#FEFFFF" transform="matrix(1.00, 0.00, -0.00, -1.00, 850.5, 539.6)">r</text><text xml:space="preserve" font-family="ChalkboardSE-Regular,Chalkboard SE" font-size="35.0" fill="#FEFFFF" transform="matrix(1.00, 0.00, -0.00, -1.00, 865.8, 539.6)"> </text><text xml:space="preserve" font-family="ChalkboardSE-Regular,Chalkboard SE" font-size="35.0" fill="#FEFFFF" transform="matrix(1.00, 0.00, -0.00, -1.00, 879.2, 539.6)">f</text><text xml:space="preserve" font-family="ChalkboardSE-Regular,Chalkboard SE" font-size="35.0" fill="#FEFFFF" transform="matrix(1.00, 0.00, -0.00, -1.00, 894.3, 539.6)">u</text><text xml:space="preserve" font-family="ChalkboardSE-Regular,Chalkboard SE" font-size="35.0" fill="#FEFFFF" transform="matrix(1.00, 0.00, -0.00, -1.00, 913.3, 539.6)">n</text><text xml:space="preserve" font-family="ChalkboardSE-Regular,Chalkboard SE" font-size="35.0" fill="#FEFFFF" transform="matrix(1.00, 0.00, -0.00, -1.00, 931.2, 539.6)">c</text><text xml:space="preserve" font-family="ChalkboardSE-Regular,Chalkboard SE" font-size="35.0" fill="#FEFFFF" transform="matrix(1.00, 0.00, -0.00, -1.00, 947.2, 539.6)">t</text><text xml:space="preserve" font-family="ChalkboardSE-Regular,Chalkboard SE" font-size="35.0" fill="#FEFFFF" transform="matrix(1.00, 0.00, -0.00, -1.00, 963.4, 539.6)">i</text><text xml:space="preserve" font-family="ChalkboardSE-Regular,Chalkboard SE" font-size="35.0" fill="#FEFFFF" transform="matrix(1.00, 0.00, -0.00, -1.00, 972.1, 539.6)">o</text><text xml:space="preserve" font-family="ChalkboardSE-Regular,Chalkboard SE" font-size="35.0" fill="#FEFFFF" transform="matrix(1.00, 0.00, -0.00, -1.00, 990.1, 539.6)">n</text><image xlink:href="../../F34B1A34-1D5B-4CC2-9A6B-BF8AFFE1DE09/assets/831CF93A2A5337B12C9083E23F747B91.png" width="572.00" height="254.00" transform="matrix(1.30, 0.00, -0.00, -1.30, 140.4, 444.8)"></image></g></svg>