<?xml version="1.0" encoding="UTF-8" standalone="no"?><svg xmlns="http://www.w3.org/2000/svg" xmlns:xlink="http://www.w3.org/1999/xlink" clip-rule="evenodd" stroke-miterlimit="10" viewBox="0 0 1024 768"><desc>SVG generated by Keynote</desc><defs></defs><g transform="matrix(1.00, 0.00, -0.00, -1.00, 0.0, 768.0)"><path d="M 0.0 768.0 L 1024.0 768.0 L 1024.0 0.0 L 0.0 0.0 Z M 0.0 768.0 " fill="#000000"></path><text xml:space="preserve" font-family="ChalkboardSE-Regular,Chalkboard SE" font-size="50.0" fill="#FEFFFF" transform="matrix(1.00, 0.00, -0.00, -1.00, 109.5, 641.5)">E</text><text xml:space="preserve" font-family="ChalkboardSE-Regular,Chalkboard SE" font-size="50.0" fill="#FEFFFF" transform="matrix(1.00, 0.00, -0.00, -1.00, 136.8, 641.5)">x</text><text xml:space="preserve" font-family="ChalkboardSE-Regular,Chalkboard SE" font-size="50.0" fill="#FEFFFF" transform="matrix(1.00, 0.00, -0.00, -1.00, 162.8, 641.5)">a</text><text xml:space="preserve" font-family="ChalkboardSE-Regular,Chalkboard SE" font-size="50.0" fill="#FEFFFF" transform="matrix(1.00, 0.00, -0.00, -1.00, 189.6, 641.5)">m</text><text xml:space="preserve" font-family="ChalkboardSE-Regular,Chalkboard SE" font-size="50.0" fill="#FEFFFF" transform="matrix(1.00, 0.00, -0.00, -1.00, 226.4, 641.5)">p</text><text xml:space="preserve" font-family="ChalkboardSE-Regular,Chalkboard SE" font-size="50.0" fill="#FEFFFF" transform="matrix(1.00, 0.00, -0.00, -1.00, 252.8, 641.5)">l</text><text xml:space="preserve" font-family="ChalkboardSE-Regular,Chalkboard SE" font-size="50.0" fill="#FEFFFF" transform="matrix(1.00, 0.00, -0.00, -1.00, 265.1, 641.5)">e</text><image xlink:href="../../C928A735-F03A-41EB-B0CE-D99DF8CB3081/assets/2D646BEF02B45458E98469C94EF7D963.png" width="199.00" height="105.00" transform="matrix(1.42, 0.00, -0.00, -1.42, 440.3, 724.5)"></image><image xlink:href="../../C928A735-F03A-41EB-B0CE-D99DF8CB3081/assets/9A287D710BB8046570C98C6CCE3EF941.png" width="526.00" height="178.00" transform="matrix(1.17, 0.00, -0.00, -1.17, 220.5, 543.6)"></image><image xlink:href="../../C928A735-F03A-41EB-B0CE-D99DF8CB3081/assets/F66896AEDA94E2F15944C88F19868C15.png" width="444.00" height="206.00" transform="matrix(1.39, 0.00, -0.00, -1.39, 220.5, 303.5)"></image></g></svg>