<?xml version="1.0" encoding="UTF-8" standalone="no"?><svg xmlns="http://www.w3.org/2000/svg" xmlns:xlink="http://www.w3.org/1999/xlink" clip-rule="evenodd" stroke-miterlimit="10" viewBox="0 0 1024 768"><desc>SVG generated by Keynote</desc><defs></defs><g transform="matrix(1.00, 0.00, -0.00, -1.00, 0.0, 768.0)"><path d="M 0.0 768.0 L 1024.0 768.0 L 1024.0 0.0 L 0.0 0.0 Z M 0.0 768.0 " fill="#00397A"></path><image xlink:href="../../5260E124-7CCF-4087-B178-AD99F3F7BC8C/assets/E4E6C449740CC32ACE88C588E7D12704.png" width="489.00" height="189.00" transform="matrix(1.74, 0.00, -0.00, -1.74, 110.7, 519.7)"></image><text xml:space="preserve" font-family="ChalkboardSE-Regular,Chalkboard SE" font-size="50.0" fill="#FEFFFF" transform="matrix(1.00, 0.00, -0.00, -1.00, 334.8, 613.1)">N</text><text xml:space="preserve" font-family="ChalkboardSE-Regular,Chalkboard SE" font-size="50.0" fill="#FEFFFF" transform="matrix(1.00, 0.00, -0.00, -1.00, 367.0, 613.1)">a</text><text xml:space="preserve" font-family="ChalkboardSE-Regular,Chalkboard SE" font-size="50.0" fill="#FEFFFF" transform="matrix(1.00, 0.00, -0.00, -1.00, 393.8, 613.1)">m</text><text xml:space="preserve" font-family="ChalkboardSE-Regular,Chalkboard SE" font-size="50.0" fill="#FEFFFF" transform="matrix(1.00, 0.00, -0.00, -1.00, 431.8, 613.1)">e</text><text xml:space="preserve" font-family="ChalkboardSE-Regular,Chalkboard SE" font-size="50.0" fill="#FEFFFF" transform="matrix(1.00, 0.00, -0.00, -1.00, 460.5, 613.1)">d</text><text xml:space="preserve" font-family="ChalkboardSE-Regular,Chalkboard SE" font-size="50.0" fill="#FEFFFF" transform="matrix(1.00, 0.00, -0.00, -1.00, 486.2, 613.1)"> </text><text xml:space="preserve" font-family="ChalkboardSE-Regular,Chalkboard SE" font-size="50.0" fill="#FEFFFF" transform="matrix(1.00, 0.00, -0.00, -1.00, 505.3, 613.1)">f</text><text xml:space="preserve" font-family="ChalkboardSE-Regular,Chalkboard SE" font-size="50.0" fill="#FEFFFF" transform="matrix(1.00, 0.00, -0.00, -1.00, 526.9, 613.1)">u</text><text xml:space="preserve" font-family="ChalkboardSE-Regular,Chalkboard SE" font-size="50.0" fill="#FEFFFF" transform="matrix(1.00, 0.00, -0.00, -1.00, 554.1, 613.1)">n</text><text xml:space="preserve" font-family="ChalkboardSE-Regular,Chalkboard SE" font-size="50.0" fill="#FEFFFF" transform="matrix(1.00, 0.00, -0.00, -1.00, 579.6, 613.1)">c</text><text xml:space="preserve" font-family="ChalkboardSE-Regular,Chalkboard SE" font-size="50.0" fill="#FEFFFF" transform="matrix(1.00, 0.00, -0.00, -1.00, 602.5, 613.1)">t</text><text xml:space="preserve" font-family="ChalkboardSE-Regular,Chalkboard SE" font-size="50.0" fill="#FEFFFF" transform="matrix(1.00, 0.00, -0.00, -1.00, 625.7, 613.1)">i</text><text xml:space="preserve" font-family="ChalkboardSE-Regular,Chalkboard SE" font-size="50.0" fill="#FEFFFF" transform="matrix(1.00, 0.00, -0.00, -1.00, 638.1, 613.1)">o</text><text xml:space="preserve" font-family="ChalkboardSE-Regular,Chalkboard SE" font-size="50.0" fill="#FEFFFF" transform="matrix(1.00, 0.00, -0.00, -1.00, 663.8, 613.1)">n</text><text xml:space="preserve" font-family="ChalkboardSE-Regular,Chalkboard SE" font-size="50.0" fill="#FEFFFF" transform="matrix(1.00, 0.00, -0.00, -1.00, 689.3, 613.1)"> </text></g></svg>