<?xml version="1.0" encoding="UTF-8" standalone="no"?><svg xmlns="http://www.w3.org/2000/svg" xmlns:xlink="http://www.w3.org/1999/xlink" clip-rule="evenodd" stroke-miterlimit="10" viewBox="0 0 1024 768"><desc>SVG generated by Keynote</desc><defs></defs><g transform="matrix(1.00, 0.00, -0.00, -1.00, 0.0, 768.0)"><path d="M 0.0 768.0 L 1024.0 768.0 L 1024.0 0.0 L 0.0 0.0 Z M 0.0 768.0 " fill="#00397A"></path><image xlink:href="../../1F3F9919-2F9B-4D36-8BD7-51398B805AF1/assets/B0AFC8232145592D883044FD0E0634E6.png" width="476.00" height="179.00" transform="matrix(1.53, 0.00, -0.00, -1.53, 148.8, 520.6)"></image><text xml:space="preserve" font-family="ChalkboardSE-Regular,Chalkboard SE" font-size="50.0" fill="#FEFFFF" transform="matrix(1.00, 0.00, -0.00, -1.00, 273.0, 611.6)">E</text><text xml:space="preserve" font-family="ChalkboardSE-Regular,Chalkboard SE" font-size="50.0" fill="#FEFFFF" transform="matrix(1.00, 0.00, -0.00, -1.00, 300.4, 611.6)">x</text><text xml:space="preserve" font-family="ChalkboardSE-Regular,Chalkboard SE" font-size="50.0" fill="#FEFFFF" transform="matrix(1.00, 0.00, -0.00, -1.00, 327.5, 611.6)">e</text><text xml:space="preserve" font-family="ChalkboardSE-Regular,Chalkboard SE" font-size="50.0" fill="#FEFFFF" transform="matrix(1.00, 0.00, -0.00, -1.00, 354.6, 611.6)">c</text><text xml:space="preserve" font-family="ChalkboardSE-Regular,Chalkboard SE" font-size="50.0" fill="#FEFFFF" transform="matrix(1.00, 0.00, -0.00, -1.00, 379.2, 611.6)">u</text><text xml:space="preserve" font-family="ChalkboardSE-Regular,Chalkboard SE" font-size="50.0" fill="#FEFFFF" transform="matrix(1.00, 0.00, -0.00, -1.00, 402.6, 611.6)">t</text><text xml:space="preserve" font-family="ChalkboardSE-Regular,Chalkboard SE" font-size="50.0" fill="#FEFFFF" transform="matrix(1.00, 0.00, -0.00, -1.00, 421.5, 611.6)">a</text><text xml:space="preserve" font-family="ChalkboardSE-Regular,Chalkboard SE" font-size="50.0" fill="#FEFFFF" transform="matrix(1.00, 0.00, -0.00, -1.00, 448.4, 611.6)">b</text><text xml:space="preserve" font-family="ChalkboardSE-Regular,Chalkboard SE" font-size="50.0" fill="#FEFFFF" transform="matrix(1.00, 0.00, -0.00, -1.00, 476.3, 611.6)">l</text><text xml:space="preserve" font-family="ChalkboardSE-Regular,Chalkboard SE" font-size="50.0" fill="#FEFFFF" transform="matrix(1.00, 0.00, -0.00, -1.00, 488.6, 611.6)">e</text><text xml:space="preserve" font-family="ChalkboardSE-Regular,Chalkboard SE" font-size="50.0" fill="#FEFFFF" transform="matrix(1.00, 0.00, -0.00, -1.00, 514.9, 611.6)"> </text><text xml:space="preserve" font-family="ChalkboardSE-Regular,Chalkboard SE" font-size="50.0" fill="#FEFFFF" transform="matrix(1.00, 0.00, -0.00, -1.00, 534.0, 611.6)">b</text><text xml:space="preserve" font-family="ChalkboardSE-Regular,Chalkboard SE" font-size="50.0" fill="#FEFFFF" transform="matrix(1.00, 0.00, -0.00, -1.00, 560.8, 611.6)">a</text><text xml:space="preserve" font-family="ChalkboardSE-Regular,Chalkboard SE" font-size="50.0" fill="#FEFFFF" transform="matrix(1.00, 0.00, -0.00, -1.00, 588.2, 611.6)">s</text><text xml:space="preserve" font-family="ChalkboardSE-Regular,Chalkboard SE" font-size="50.0" fill="#FEFFFF" transform="matrix(1.00, 0.00, -0.00, -1.00, 609.7, 611.6)">h</text><text xml:space="preserve" font-family="ChalkboardSE-Regular,Chalkboard SE" font-size="50.0" fill="#FEFFFF" transform="matrix(1.00, 0.00, -0.00, -1.00, 636.9, 611.6)"> </text><text xml:space="preserve" font-family="ChalkboardSE-Regular,Chalkboard SE" font-size="50.0" fill="#FEFFFF" transform="matrix(1.00, 0.00, -0.00, -1.00, 656.0, 611.6)">ï¬</text><text xml:space="preserve" font-family="ChalkboardSE-Regular,Chalkboard SE" font-size="50.0" fill="#FEFFFF" transform="matrix(1.00, 0.00, -0.00, -1.00, 684.9, 611.6)">l</text><text xml:space="preserve" font-family="ChalkboardSE-Regular,Chalkboard SE" font-size="50.0" fill="#FEFFFF" transform="matrix(1.00, 0.00, -0.00, -1.00, 697.1, 611.6)">e</text></g></svg>