<?xml version="1.0" encoding="UTF-8" standalone="no"?><svg xmlns="http://www.w3.org/2000/svg" xmlns:xlink="http://www.w3.org/1999/xlink" clip-rule="evenodd" stroke-miterlimit="10" viewBox="0 0 1024 768"><desc>SVG generated by Keynote</desc><defs></defs><g transform="matrix(1.00, 0.00, -0.00, -1.00, 0.0, 768.0)"><path d="M 0.0 768.0 L 1024.0 768.0 L 1024.0 0.0 L 0.0 0.0 Z M 0.0 768.0 " fill="#00397A"></path><image xlink:href="../../B895AA13-237F-4891-85F8-6D98A944B32D/assets/B9A50E73A2BB9D9383DBBC80E0098720.png" width="516.00" height="301.00" transform="matrix(1.32, 0.00, -0.00, -1.32, 187.6, 550.5)"></image><text xml:space="preserve" font-family="ChalkboardSE-Regular,Chalkboard SE" font-size="50.0" fill="#FEFFFF" transform="matrix(1.00, 0.00, -0.00, -1.00, 319.2, 614.6)">N</text><text xml:space="preserve" font-family="ChalkboardSE-Regular,Chalkboard SE" font-size="50.0" fill="#FEFFFF" transform="matrix(1.00, 0.00, -0.00, -1.00, 351.4, 614.6)">a</text><text xml:space="preserve" font-family="ChalkboardSE-Regular,Chalkboard SE" font-size="50.0" fill="#FEFFFF" transform="matrix(1.00, 0.00, -0.00, -1.00, 378.2, 614.6)">m</text><text xml:space="preserve" font-family="ChalkboardSE-Regular,Chalkboard SE" font-size="50.0" fill="#FEFFFF" transform="matrix(1.00, 0.00, -0.00, -1.00, 416.3, 614.6)">e</text><text xml:space="preserve" font-family="ChalkboardSE-Regular,Chalkboard SE" font-size="50.0" fill="#FEFFFF" transform="matrix(1.00, 0.00, -0.00, -1.00, 444.9, 614.6)">d</text><text xml:space="preserve" font-family="ChalkboardSE-Regular,Chalkboard SE" font-size="50.0" fill="#FEFFFF" transform="matrix(1.00, 0.00, -0.00, -1.00, 470.6, 614.6)"> </text><text xml:space="preserve" font-family="ChalkboardSE-Regular,Chalkboard SE" font-size="50.0" fill="#FEFFFF" transform="matrix(1.00, 0.00, -0.00, -1.00, 489.8, 614.6)">p</text><text xml:space="preserve" font-family="ChalkboardSE-Regular,Chalkboard SE" font-size="50.0" fill="#FEFFFF" transform="matrix(1.00, 0.00, -0.00, -1.00, 515.0, 614.6)">r</text><text xml:space="preserve" font-family="ChalkboardSE-Regular,Chalkboard SE" font-size="50.0" fill="#FEFFFF" transform="matrix(1.00, 0.00, -0.00, -1.00, 536.2, 614.6)">o</text><text xml:space="preserve" font-family="ChalkboardSE-Regular,Chalkboard SE" font-size="50.0" fill="#FEFFFF" transform="matrix(1.00, 0.00, -0.00, -1.00, 558.7, 614.6)">t</text><text xml:space="preserve" font-family="ChalkboardSE-Regular,Chalkboard SE" font-size="50.0" fill="#FEFFFF" transform="matrix(1.00, 0.00, -0.00, -1.00, 579.4, 614.6)">o</text><text xml:space="preserve" font-family="ChalkboardSE-Regular,Chalkboard SE" font-size="50.0" fill="#FEFFFF" transform="matrix(1.00, 0.00, -0.00, -1.00, 602.0, 614.6)">t</text><text xml:space="preserve" font-family="ChalkboardSE-Regular,Chalkboard SE" font-size="50.0" fill="#FEFFFF" transform="matrix(1.00, 0.00, -0.00, -1.00, 624.9, 614.6)">y</text><text xml:space="preserve" font-family="ChalkboardSE-Regular,Chalkboard SE" font-size="50.0" fill="#FEFFFF" transform="matrix(1.00, 0.00, -0.00, -1.00, 651.7, 614.6)">p</text><text xml:space="preserve" font-family="ChalkboardSE-Regular,Chalkboard SE" font-size="50.0" fill="#FEFFFF" transform="matrix(1.00, 0.00, -0.00, -1.00, 678.7, 614.6)">e</text></g></svg>