<?xml version="1.0" encoding="UTF-8" standalone="no"?><svg xmlns="http://www.w3.org/2000/svg" xmlns:xlink="http://www.w3.org/1999/xlink" clip-rule="evenodd" stroke-miterlimit="10" viewBox="0 0 1024 768"><desc>SVG generated by Keynote</desc><defs></defs><g transform="matrix(1.00, 0.00, -0.00, -1.00, 0.0, 768.0)"><path d="M 0.0 768.0 L 1024.0 768.0 L 1024.0 0.0 L 0.0 0.0 Z M 0.0 768.0 " fill="#000000"></path><text xml:space="preserve" font-family="ChalkboardSE-Regular,Chalkboard SE" font-size="100.0" fill="#FEFFFF" transform="matrix(1.00, 0.00, -0.00, -1.00, 361.7, 504.4)">t</text><text xml:space="preserve" font-family="ChalkboardSE-Regular,Chalkboard SE" font-size="100.0" fill="#FEFFFF" transform="matrix(1.00, 0.00, -0.00, -1.00, 407.5, 504.4)">h</text><text xml:space="preserve" font-family="ChalkboardSE-Regular,Chalkboard SE" font-size="100.0" fill="#FEFFFF" transform="matrix(1.00, 0.00, -0.00, -1.00, 461.8, 504.4)">a</text><text xml:space="preserve" font-family="ChalkboardSE-Regular,Chalkboard SE" font-size="100.0" fill="#FEFFFF" transform="matrix(1.00, 0.00, -0.00, -1.00, 515.3, 504.4)">n</text><text xml:space="preserve" font-family="ChalkboardSE-Regular,Chalkboard SE" font-size="100.0" fill="#FEFFFF" transform="matrix(1.00, 0.00, -0.00, -1.00, 566.4, 504.4)">k</text><text xml:space="preserve" font-family="ChalkboardSE-Regular,Chalkboard SE" font-size="100.0" fill="#FEFFFF" transform="matrix(1.00, 0.00, -0.00, -1.00, 619.3, 504.4)">s</text><image xlink:href="2DC1D065F732346E7D4831F4FD47130C.jpeg" width="256.00" height="256.00" transform="matrix(0.85, 0.00, -0.00, -0.85, 403.5, 438.6)"></image><text xml:space="preserve" font-family="ComicSansMS,Comic Sans MS" font-size="36.0" fill="#FEFFFF" transform="matrix(1.00, 0.00, -0.00, -1.00, 268.0, 98.4)">d</text><text xml:space="preserve" font-family="ComicSansMS,Comic Sans MS" font-size="36.0" fill="#FEFFFF" transform="matrix(1.00, 0.00, -0.00, -1.00, 289.2, 98.4)">i</text><text xml:space="preserve" font-family="ComicSansMS,Comic Sans MS" font-size="36.0" fill="#FEFFFF" transform="matrix(1.00, 0.00, -0.00, -1.00, 299.3, 98.4)">e</text><text xml:space="preserve" font-family="ComicSansMS,Comic Sans MS" font-size="36.0" fill="#FEFFFF" transform="matrix(1.00, 0.00, -0.00, -1.00, 319.0, 98.4)">g</text><text xml:space="preserve" font-family="ComicSansMS,Comic Sans MS" font-size="36.0" fill="#FEFFFF" transform="matrix(1.00, 0.00, -0.00, -1.00, 338.1, 98.4)">o</text><text xml:space="preserve" font-family="ComicSansMS,Comic Sans MS" font-size="36.0" fill="#FEFFFF" transform="matrix(1.00, 0.00, -0.00, -1.00, 357.0, 98.4)">.</text><text xml:space="preserve" font-family="ComicSansMS,Comic Sans MS" font-size="36.0" fill="#FEFFFF" transform="matrix(1.00, 0.00, -0.00, -1.00, 366.0, 98.4)">r</text><text xml:space="preserve" font-family="ComicSansMS,Comic Sans MS" font-size="36.0" fill="#FEFFFF" transform="matrix(1.00, 0.00, -0.00, -1.00, 383.3, 98.4)">a</text><text xml:space="preserve" font-family="ComicSansMS,Comic Sans MS" font-size="36.0" fill="#FEFFFF" transform="matrix(1.00, 0.00, -0.00, -1.00, 401.7, 98.4)">m</text><text xml:space="preserve" font-family="ComicSansMS,Comic Sans MS" font-size="36.0" fill="#FEFFFF" transform="matrix(1.00, 0.00, -0.00, -1.00, 429.7, 98.4)">i</text><text xml:space="preserve" font-family="ComicSansMS,Comic Sans MS" font-size="36.0" fill="#FEFFFF" transform="matrix(1.00, 0.00, -0.00, -1.00, 439.8, 98.4)">r</text><text xml:space="preserve" font-family="ComicSansMS,Comic Sans MS" font-size="36.0" fill="#FEFFFF" transform="matrix(1.00, 0.00, -0.00, -1.00, 457.1, 98.4)">e</text><text xml:space="preserve" font-family="ComicSansMS,Comic Sans MS" font-size="36.0" fill="#FEFFFF" transform="matrix(1.00, 0.00, -0.00, -1.00, 476.8, 98.4)">z</text><text xml:space="preserve" font-family="ComicSansMS,Comic Sans MS" font-size="36.0" fill="#FEFFFF" transform="matrix(1.00, 0.00, -0.00, -1.00, 496.2, 98.4)">@</text><text xml:space="preserve" font-family="ComicSansMS,Comic Sans MS" font-size="36.0" fill="#FEFFFF" transform="matrix(1.00, 0.00, -0.00, -1.00, 529.7, 98.4)">g</text><text xml:space="preserve" font-family="ComicSansMS,Comic Sans MS" font-size="36.0" fill="#FEFFFF" transform="matrix(1.00, 0.00, -0.00, -1.00, 548.8, 98.4)">l</text><text xml:space="preserve" font-family="ComicSansMS,Comic Sans MS" font-size="36.0" fill="#FEFFFF" transform="matrix(1.00, 0.00, -0.00, -1.00, 558.7, 98.4)">o</text><text xml:space="preserve" font-family="ComicSansMS,Comic Sans MS" font-size="36.0" fill="#FEFFFF" transform="matrix(1.00, 0.00, -0.00, -1.00, 577.6, 98.4)">b</text><text xml:space="preserve" font-family="ComicSansMS,Comic Sans MS" font-size="36.0" fill="#FEFFFF" transform="matrix(1.00, 0.00, -0.00, -1.00, 599.0, 98.4)">a</text><text xml:space="preserve" font-family="ComicSansMS,Comic Sans MS" font-size="36.0" fill="#FEFFFF" transform="matrix(1.00, 0.00, -0.00, -1.00, 617.4, 98.4)">l</text><text xml:space="preserve" font-family="ComicSansMS,Comic Sans MS" font-size="36.0" fill="#FEFFFF" transform="matrix(1.00, 0.00, -0.00, -1.00, 627.2, 98.4)">l</text><text xml:space="preserve" font-family="ComicSansMS,Comic Sans MS" font-size="36.0" fill="#FEFFFF" transform="matrix(1.00, 0.00, -0.00, -1.00, 637.1, 98.4)">o</text><text xml:space="preserve" font-family="ComicSansMS,Comic Sans MS" font-size="36.0" fill="#FEFFFF" transform="matrix(1.00, 0.00, -0.00, -1.00, 656.0, 98.4)">g</text><text xml:space="preserve" font-family="ComicSansMS,Comic Sans MS" font-size="36.0" fill="#FEFFFF" transform="matrix(1.00, 0.00, -0.00, -1.00, 675.1, 98.4)">i</text><text xml:space="preserve" font-family="ComicSansMS,Comic Sans MS" font-size="36.0" fill="#FEFFFF" transform="matrix(1.00, 0.00, -0.00, -1.00, 685.2, 98.4)">c</text><text xml:space="preserve" font-family="ComicSansMS,Comic Sans MS" font-size="36.0" fill="#FEFFFF" transform="matrix(1.00, 0.00, -0.00, -1.00, 703.7, 98.4)">.</text><text xml:space="preserve" font-family="ComicSansMS,Comic Sans MS" font-size="36.0" fill="#FEFFFF" transform="matrix(1.00, 0.00, -0.00, -1.00, 712.7, 98.4)">c</text><text xml:space="preserve" font-family="ComicSansMS,Comic Sans MS" font-size="36.0" fill="#FEFFFF" transform="matrix(1.00, 0.00, -0.00, -1.00, 731.1, 98.4)">o</text><text xml:space="preserve" font-family="ComicSansMS,Comic Sans MS" font-size="36.0" fill="#FEFFFF" transform="matrix(1.00, 0.00, -0.00, -1.00, 750.1, 98.4)">m</text><g><clipPath id="clip0x6000032a0120"><path d="M 267.0 91.0 L 778.0 91.0 L 778.0 96.1 L 267.0 96.1 Z M 267.0 91.0 "></path></clipPath><g clip-path="url(#clip0x6000032a0120)"><path d="M 4.5 48.3 L 514.5 48.3 " fill="none" stroke="#FEFFFF" stroke-width="3.08" transform="matrix(1.00, 0.00, 0.00, -1.00, 263.5, 141.9)"></path></g></g></g></svg>