<?xml version="1.0" encoding="UTF-8" standalone="no"?><svg xmlns="http://www.w3.org/2000/svg" xmlns:xlink="http://www.w3.org/1999/xlink" clip-rule="evenodd" stroke-miterlimit="10" viewBox="0 0 1024 768"><desc>SVG generated by Keynote</desc><defs></defs><g transform="matrix(1.00, 0.00, -0.00, -1.00, 0.0, 768.0)"><path d="M 0.0 768.0 L 1024.0 768.0 L 1024.0 0.0 L 0.0 0.0 Z M 0.0 768.0 " fill="#000000"></path><text xml:space="preserve" font-family="ChalkboardSE-Regular,Chalkboard SE" font-size="50.0" fill="#FEFFFF" transform="matrix(1.00, 0.00, -0.00, -1.00, 510.8, 618.2)">p</text><text xml:space="preserve" font-family="ChalkboardSE-Regular,Chalkboard SE" font-size="50.0" fill="#FEFFFF" transform="matrix(1.00, 0.00, -0.00, -1.00, 536.1, 618.2)">r</text><text xml:space="preserve" font-family="ChalkboardSE-Regular,Chalkboard SE" font-size="50.0" fill="#FEFFFF" transform="matrix(1.00, 0.00, -0.00, -1.00, 557.2, 618.2)">o</text><text xml:space="preserve" font-family="ChalkboardSE-Regular,Chalkboard SE" font-size="50.0" fill="#FEFFFF" transform="matrix(1.00, 0.00, -0.00, -1.00, 579.8, 618.2)">t</text><text xml:space="preserve" font-family="ChalkboardSE-Regular,Chalkboard SE" font-size="50.0" fill="#FEFFFF" transform="matrix(1.00, 0.00, -0.00, -1.00, 600.5, 618.2)">o</text><text xml:space="preserve" font-family="ChalkboardSE-Regular,Chalkboard SE" font-size="50.0" fill="#FEFFFF" transform="matrix(1.00, 0.00, -0.00, -1.00, 623.0, 618.2)">t</text><text xml:space="preserve" font-family="ChalkboardSE-Regular,Chalkboard SE" font-size="50.0" fill="#FEFFFF" transform="matrix(1.00, 0.00, -0.00, -1.00, 646.0, 618.2)">y</text><text xml:space="preserve" font-family="ChalkboardSE-Regular,Chalkboard SE" font-size="50.0" fill="#FEFFFF" transform="matrix(1.00, 0.00, -0.00, -1.00, 672.7, 618.2)">p</text><text xml:space="preserve" font-family="ChalkboardSE-Regular,Chalkboard SE" font-size="50.0" fill="#FEFFFF" transform="matrix(1.00, 0.00, -0.00, -1.00, 699.7, 618.2)">e</text><image xlink:href="D314B2A5E67DE6D85121936075E8D943.jpeg" width="250.00" height="201.00" transform="matrix(0.82, 0.00, -0.00, -0.82, 274.6, 713.2)"></image><image xlink:href="ECA62E9A0661CD37DB280B8056BC54B1.png" width="494.00" height="290.00" transform="matrix(1.43, 0.00, -0.00, -1.43, 193.6, 497.4)"></image></g></svg>