<?xml version="1.0" encoding="UTF-8" standalone="no"?><svg xmlns="http://www.w3.org/2000/svg" xmlns:xlink="http://www.w3.org/1999/xlink" clip-rule="evenodd" stroke-miterlimit="10" viewBox="0 0 1024 768"><desc>SVG generated by Keynote</desc><defs></defs><g transform="matrix(1.00, 0.00, -0.00, -1.00, 0.0, 768.0)"><path d="M 0.0 768.0 L 1024.0 768.0 L 1024.0 0.0 L 0.0 0.0 Z M 0.0 768.0 " fill="#00397A"></path><image xlink:href="../../40AE2653-7045-44E1-9011-6C35E1B4CA67/assets/0774F1F931BCDF837BD1D20244857DBF.png" width="360.00" height="140.00" transform="matrix(1.00, 0.00, -0.00, -1.00, 332.0, 602.5)"></image><text xml:space="preserve" font-family="ComicSansMS,Comic Sans MS" font-size="36.0" fill="#FEFFFF" transform="matrix(1.00, 0.00, -0.00, -1.00, 250.0, 369.5)">$</text><text xml:space="preserve" font-family="ComicSansMS,Comic Sans MS" font-size="36.0" fill="#FEFFFF" transform="matrix(1.00, 0.00, -0.00, -1.00, 274.9, 369.5)">n</text><text xml:space="preserve" font-family="ComicSansMS,Comic Sans MS" font-size="36.0" fill="#FEFFFF" transform="matrix(1.00, 0.00, -0.00, -1.00, 293.8, 369.5)">p</text><text xml:space="preserve" font-family="ComicSansMS,Comic Sans MS" font-size="36.0" fill="#FEFFFF" transform="matrix(1.00, 0.00, -0.00, -1.00, 313.0, 369.5)">m</text><text xml:space="preserve" font-family="ComicSansMS,Comic Sans MS" font-size="36.0" fill="#FEFFFF" transform="matrix(1.00, 0.00, -0.00, -1.00, 341.0, 369.5)"> </text><text xml:space="preserve" font-family="ComicSansMS,Comic Sans MS" font-size="36.0" fill="#FEFFFF" transform="matrix(1.00, 0.00, -0.00, -1.00, 351.7, 369.5)">i</text><text xml:space="preserve" font-family="ComicSansMS,Comic Sans MS" font-size="36.0" fill="#FEFFFF" transform="matrix(1.00, 0.00, -0.00, -1.00, 361.8, 369.5)">n</text><text xml:space="preserve" font-family="ComicSansMS,Comic Sans MS" font-size="36.0" fill="#FEFFFF" transform="matrix(1.00, 0.00, -0.00, -1.00, 380.7, 369.5)">s</text><text xml:space="preserve" font-family="ComicSansMS,Comic Sans MS" font-size="36.0" fill="#FEFFFF" transform="matrix(1.00, 0.00, -0.00, -1.00, 398.2, 369.5)">t</text><text xml:space="preserve" font-family="ComicSansMS,Comic Sans MS" font-size="36.0" fill="#FEFFFF" transform="matrix(1.00, 0.00, -0.00, -1.00, 415.2, 369.5)">a</text><text xml:space="preserve" font-family="ComicSansMS,Comic Sans MS" font-size="36.0" fill="#FEFFFF" transform="matrix(1.00, 0.00, -0.00, -1.00, 433.6, 369.5)">l</text><text xml:space="preserve" font-family="ComicSansMS,Comic Sans MS" font-size="36.0" fill="#FEFFFF" transform="matrix(1.00, 0.00, -0.00, -1.00, 443.5, 369.5)">l</text><text xml:space="preserve" font-family="ComicSansMS,Comic Sans MS" font-size="36.0" fill="#FEFFFF" transform="matrix(1.00, 0.00, -0.00, -1.00, 453.3, 369.5)"> </text><text xml:space="preserve" font-family="ComicSansMS,Comic Sans MS" font-size="36.0" fill="#FEFFFF" transform="matrix(1.00, 0.00, -0.00, -1.00, 464.1, 369.5)">w</text><text xml:space="preserve" font-family="ComicSansMS,Comic Sans MS" font-size="36.0" fill="#FEFFFF" transform="matrix(1.00, 0.00, -0.00, -1.00, 488.7, 369.5)">h</text><text xml:space="preserve" font-family="ComicSansMS,Comic Sans MS" font-size="36.0" fill="#FEFFFF" transform="matrix(1.00, 0.00, -0.00, -1.00, 509.5, 369.5)">a</text><text xml:space="preserve" font-family="ComicSansMS,Comic Sans MS" font-size="36.0" fill="#FEFFFF" transform="matrix(1.00, 0.00, -0.00, -1.00, 527.9, 369.5)">t</text><text xml:space="preserve" font-family="ComicSansMS,Comic Sans MS" font-size="36.0" fill="#FEFFFF" transform="matrix(1.00, 0.00, -0.00, -1.00, 544.9, 369.5)">E</text><text xml:space="preserve" font-family="ComicSansMS,Comic Sans MS" font-size="36.0" fill="#FEFFFF" transform="matrix(1.00, 0.00, -0.00, -1.00, 567.3, 369.5)">v</text><text xml:space="preserve" font-family="ComicSansMS,Comic Sans MS" font-size="36.0" fill="#FEFFFF" transform="matrix(1.00, 0.00, -0.00, -1.00, 584.8, 369.5)">e</text><text xml:space="preserve" font-family="ComicSansMS,Comic Sans MS" font-size="36.0" fill="#FEFFFF" transform="matrix(1.00, 0.00, -0.00, -1.00, 604.6, 369.5)">r</text><text xml:space="preserve" font-family="ComicSansMS,Comic Sans MS" font-size="36.0" fill="#FEFFFF" transform="matrix(1.00, 0.00, -0.00, -1.00, 621.9, 369.5)">Y</text><text xml:space="preserve" font-family="ComicSansMS,Comic Sans MS" font-size="36.0" fill="#FEFFFF" transform="matrix(1.00, 0.00, -0.00, -1.00, 644.8, 369.5)">o</text><text xml:space="preserve" font-family="ComicSansMS,Comic Sans MS" font-size="36.0" fill="#FEFFFF" transform="matrix(1.00, 0.00, -0.00, -1.00, 663.7, 369.5)">u</text><text xml:space="preserve" font-family="ComicSansMS,Comic Sans MS" font-size="36.0" fill="#FEFFFF" transform="matrix(1.00, 0.00, -0.00, -1.00, 682.4, 369.5)">W</text><text xml:space="preserve" font-family="ComicSansMS,Comic Sans MS" font-size="36.0" fill="#FEFFFF" transform="matrix(1.00, 0.00, -0.00, -1.00, 719.8, 369.5)">a</text><text xml:space="preserve" font-family="ComicSansMS,Comic Sans MS" font-size="36.0" fill="#FEFFFF" transform="matrix(1.00, 0.00, -0.00, -1.00, 738.2, 369.5)">n</text><text xml:space="preserve" font-family="ComicSansMS,Comic Sans MS" font-size="36.0" fill="#FEFFFF" transform="matrix(1.00, 0.00, -0.00, -1.00, 757.1, 369.5)">t</text><image xlink:href="../../40AE2653-7045-44E1-9011-6C35E1B4CA67/assets/3F180216BEB3CE4BF866E04C97481B86.jpeg" width="255.00" height="198.00" transform="matrix(1.00, 0.00, -0.00, -1.00, 384.5, 216.1)"></image><text xml:space="preserve" font-family="ComicSansMS,Comic Sans MS" font-size="36.0" fill="#FEFFFF" transform="matrix(1.00, 0.00, -0.00, -1.00, 190.3, 285.5)">a</text><text xml:space="preserve" font-family="ComicSansMS,Comic Sans MS" font-size="36.0" fill="#FEFFFF" transform="matrix(1.00, 0.00, -0.00, -1.00, 208.7, 285.5)">n</text><text xml:space="preserve" font-family="ComicSansMS,Comic Sans MS" font-size="36.0" fill="#FEFFFF" transform="matrix(1.00, 0.00, -0.00, -1.00, 227.5, 285.5)">d</text><text xml:space="preserve" font-family="ComicSansMS,Comic Sans MS" font-size="36.0" fill="#FEFFFF" transform="matrix(1.00, 0.00, -0.00, -1.00, 248.7, 285.5)"> </text><text xml:space="preserve" font-family="ComicSansMS,Comic Sans MS" font-size="36.0" fill="#FEFFFF" transform="matrix(1.00, 0.00, -0.00, -1.00, 259.4, 285.5)">c</text><text xml:space="preserve" font-family="ComicSansMS,Comic Sans MS" font-size="36.0" fill="#FEFFFF" transform="matrix(1.00, 0.00, -0.00, -1.00, 277.9, 285.5)">o</text><text xml:space="preserve" font-family="ComicSansMS,Comic Sans MS" font-size="36.0" fill="#FEFFFF" transform="matrix(1.00, 0.00, -0.00, -1.00, 296.9, 285.5)">n</text><text xml:space="preserve" font-family="ComicSansMS,Comic Sans MS" font-size="36.0" fill="#FEFFFF" transform="matrix(1.00, 0.00, -0.00, -1.00, 315.7, 285.5)">s</text><text xml:space="preserve" font-family="ComicSansMS,Comic Sans MS" font-size="36.0" fill="#FEFFFF" transform="matrix(1.00, 0.00, -0.00, -1.00, 333.2, 285.5)">u</text><text xml:space="preserve" font-family="ComicSansMS,Comic Sans MS" font-size="36.0" fill="#FEFFFF" transform="matrix(1.00, 0.00, -0.00, -1.00, 351.9, 285.5)">m</text><text xml:space="preserve" font-family="ComicSansMS,Comic Sans MS" font-size="36.0" fill="#FEFFFF" transform="matrix(1.00, 0.00, -0.00, -1.00, 379.9, 285.5)">e</text><text xml:space="preserve" font-family="ComicSansMS,Comic Sans MS" font-size="36.0" fill="#FEFFFF" transform="matrix(1.00, 0.00, -0.00, -1.00, 399.6, 285.5)">s</text><text xml:space="preserve" font-family="ComicSansMS,Comic Sans MS" font-size="36.0" fill="#FEFFFF" transform="matrix(1.00, 0.00, -0.00, -1.00, 417.1, 285.5)"> </text><text xml:space="preserve" font-family="ComicSansMS,Comic Sans MS" font-size="36.0" fill="#FEFFFF" transform="matrix(1.00, 0.00, -0.00, -1.00, 427.9, 285.5)">w</text><text xml:space="preserve" font-family="ComicSansMS,Comic Sans MS" font-size="36.0" fill="#FEFFFF" transform="matrix(1.00, 0.00, -0.00, -1.00, 452.5, 285.5)">i</text><text xml:space="preserve" font-family="ComicSansMS,Comic Sans MS" font-size="36.0" fill="#FEFFFF" transform="matrix(1.00, 0.00, -0.00, -1.00, 462.6, 285.5)">t</text><text xml:space="preserve" font-family="ComicSansMS,Comic Sans MS" font-size="36.0" fill="#FEFFFF" transform="matrix(1.00, 0.00, -0.00, -1.00, 479.6, 285.5)">h</text><text xml:space="preserve" font-family="ComicSansMS,Comic Sans MS" font-size="36.0" fill="#FEFFFF" transform="matrix(1.00, 0.00, -0.00, -1.00, 500.4, 285.5)"> </text><text xml:space="preserve" font-family="ComicSansMS,Comic Sans MS" font-size="36.0" fill="#FEFFFF" transform="matrix(1.00, 0.00, -0.00, -1.00, 511.1, 285.5)">“</text><text xml:space="preserve" font-family="ComicSansMS,Comic Sans MS" font-size="36.0" fill="#FEFFFF" transform="matrix(1.00, 0.00, -0.00, -1.00, 525.3, 285.5)">r</text><text xml:space="preserve" font-family="ComicSansMS,Comic Sans MS" font-size="36.0" fill="#FEFFFF" transform="matrix(1.00, 0.00, -0.00, -1.00, 542.6, 285.5)">e</text><text xml:space="preserve" font-family="ComicSansMS,Comic Sans MS" font-size="36.0" fill="#FEFFFF" transform="matrix(1.00, 0.00, -0.00, -1.00, 562.3, 285.5)">q</text><text xml:space="preserve" font-family="ComicSansMS,Comic Sans MS" font-size="36.0" fill="#FEFFFF" transform="matrix(1.00, 0.00, -0.00, -1.00, 581.0, 285.5)">u</text><text xml:space="preserve" font-family="ComicSansMS,Comic Sans MS" font-size="36.0" fill="#FEFFFF" transform="matrix(1.00, 0.00, -0.00, -1.00, 599.8, 285.5)">i</text><text xml:space="preserve" font-family="ComicSansMS,Comic Sans MS" font-size="36.0" fill="#FEFFFF" transform="matrix(1.00, 0.00, -0.00, -1.00, 609.9, 285.5)">r</text><text xml:space="preserve" font-family="ComicSansMS,Comic Sans MS" font-size="36.0" fill="#FEFFFF" transform="matrix(1.00, 0.00, -0.00, -1.00, 627.2, 285.5)">e</text><text xml:space="preserve" font-family="ComicSansMS,Comic Sans MS" font-size="36.0" fill="#FEFFFF" transform="matrix(1.00, 0.00, -0.00, -1.00, 646.9, 285.5)">”</text><text xml:space="preserve" font-family="ComicSansMS,Comic Sans MS" font-size="36.0" fill="#FEFFFF" transform="matrix(1.00, 0.00, -0.00, -1.00, 661.0, 285.5)"> </text><text xml:space="preserve" font-family="ComicSansMS,Comic Sans MS" font-size="36.0" fill="#FEFFFF" transform="matrix(1.00, 0.00, -0.00, -1.00, 671.8, 285.5)">k</text><text xml:space="preserve" font-family="ComicSansMS,Comic Sans MS" font-size="36.0" fill="#FEFFFF" transform="matrix(1.00, 0.00, -0.00, -1.00, 691.2, 285.5)">e</text><text xml:space="preserve" font-family="ComicSansMS,Comic Sans MS" font-size="36.0" fill="#FEFFFF" transform="matrix(1.00, 0.00, -0.00, -1.00, 711.0, 285.5)">y</text><text xml:space="preserve" font-family="ComicSansMS,Comic Sans MS" font-size="36.0" fill="#FEFFFF" transform="matrix(1.00, 0.00, -0.00, -1.00, 729.7, 285.5)">w</text><text xml:space="preserve" font-family="ComicSansMS,Comic Sans MS" font-size="36.0" fill="#FEFFFF" transform="matrix(1.00, 0.00, -0.00, -1.00, 754.3, 285.5)">o</text><text xml:space="preserve" font-family="ComicSansMS,Comic Sans MS" font-size="36.0" fill="#FEFFFF" transform="matrix(1.00, 0.00, -0.00, -1.00, 773.2, 285.5)">r</text><text xml:space="preserve" font-family="ComicSansMS,Comic Sans MS" font-size="36.0" fill="#FEFFFF" transform="matrix(1.00, 0.00, -0.00, -1.00, 790.6, 285.5)">d</text></g></svg>