<?xml version="1.0" encoding="UTF-8" standalone="no"?><svg xmlns="http://www.w3.org/2000/svg" xmlns:xlink="http://www.w3.org/1999/xlink" clip-rule="evenodd" stroke-miterlimit="10" viewBox="0 0 1024 768"><desc>SVG generated by Keynote</desc><defs></defs><g transform="matrix(1.00, 0.00, -0.00, -1.00, 0.0, 768.0)"><path d="M 0.0 768.0 L 1024.0 768.0 L 1024.0 0.0 L 0.0 0.0 Z M 0.0 768.0 " fill="#000000"></path><text xml:space="preserve" font-family="ChalkboardSE-Regular,Chalkboard SE" font-size="50.0" fill="#FEFFFF" transform="matrix(1.00, 0.00, -0.00, -1.00, 307.1, 641.5)">E</text><text xml:space="preserve" font-family="ChalkboardSE-Regular,Chalkboard SE" font-size="50.0" fill="#FEFFFF" transform="matrix(1.00, 0.00, -0.00, -1.00, 334.5, 641.5)">x</text><text xml:space="preserve" font-family="ChalkboardSE-Regular,Chalkboard SE" font-size="50.0" fill="#FEFFFF" transform="matrix(1.00, 0.00, -0.00, -1.00, 361.6, 641.5)">p</text><text xml:space="preserve" font-family="ChalkboardSE-Regular,Chalkboard SE" font-size="50.0" fill="#FEFFFF" transform="matrix(1.00, 0.00, -0.00, -1.00, 388.7, 641.5)">o</text><text xml:space="preserve" font-family="ChalkboardSE-Regular,Chalkboard SE" font-size="50.0" fill="#FEFFFF" transform="matrix(1.00, 0.00, -0.00, -1.00, 413.8, 641.5)">r</text><text xml:space="preserve" font-family="ChalkboardSE-Regular,Chalkboard SE" font-size="50.0" fill="#FEFFFF" transform="matrix(1.00, 0.00, -0.00, -1.00, 435.7, 641.5)">t</text><text xml:space="preserve" font-family="ChalkboardSE-Regular,Chalkboard SE" font-size="50.0" fill="#FEFFFF" transform="matrix(1.00, 0.00, -0.00, -1.00, 458.9, 641.5)">i</text><text xml:space="preserve" font-family="ChalkboardSE-Regular,Chalkboard SE" font-size="50.0" fill="#FEFFFF" transform="matrix(1.00, 0.00, -0.00, -1.00, 471.4, 641.5)">n</text><text xml:space="preserve" font-family="ChalkboardSE-Regular,Chalkboard SE" font-size="50.0" fill="#FEFFFF" transform="matrix(1.00, 0.00, -0.00, -1.00, 497.7, 641.5)">g</text><text xml:space="preserve" font-family="ChalkboardSE-Regular,Chalkboard SE" font-size="50.0" fill="#FEFFFF" transform="matrix(1.00, 0.00, -0.00, -1.00, 524.1, 641.5)"> </text><text xml:space="preserve" font-family="ChalkboardSE-Regular,Chalkboard SE" font-size="50.0" fill="#FEFFFF" transform="matrix(1.00, 0.00, -0.00, -1.00, 535.8, 641.5)">“</text><text xml:space="preserve" font-family="ChalkboardSE-Regular,Chalkboard SE" font-size="50.0" fill="#FEFFFF" transform="matrix(1.00, 0.00, -0.00, -1.00, 557.9, 641.5)">t</text><text xml:space="preserve" font-family="ChalkboardSE-Regular,Chalkboard SE" font-size="50.0" fill="#FEFFFF" transform="matrix(1.00, 0.00, -0.00, -1.00, 580.8, 641.5)">h</text><text xml:space="preserve" font-family="ChalkboardSE-Regular,Chalkboard SE" font-size="50.0" fill="#FEFFFF" transform="matrix(1.00, 0.00, -0.00, -1.00, 608.8, 641.5)">i</text><text xml:space="preserve" font-family="ChalkboardSE-Regular,Chalkboard SE" font-size="50.0" fill="#FEFFFF" transform="matrix(1.00, 0.00, -0.00, -1.00, 621.3, 641.5)">n</text><text xml:space="preserve" font-family="ChalkboardSE-Regular,Chalkboard SE" font-size="50.0" fill="#FEFFFF" transform="matrix(1.00, 0.00, -0.00, -1.00, 647.6, 641.5)">g</text><text xml:space="preserve" font-family="ChalkboardSE-Regular,Chalkboard SE" font-size="50.0" fill="#FEFFFF" transform="matrix(1.00, 0.00, -0.00, -1.00, 675.5, 641.5)">s</text><text xml:space="preserve" font-family="ChalkboardSE-Regular,Chalkboard SE" font-size="50.0" fill="#FEFFFF" transform="matrix(1.00, 0.00, -0.00, -1.00, 694.0, 641.5)">”</text><text xml:space="preserve" font-family="ChalkboardSE-Regular,Chalkboard SE" font-size="36.0" fill="#FEFFFF" transform="matrix(1.00, 0.00, -0.00, -1.00, 370.0, 112.4)">a</text><text xml:space="preserve" font-family="ChalkboardSE-Regular,Chalkboard SE" font-size="36.0" fill="#FEFFFF" transform="matrix(1.00, 0.00, -0.00, -1.00, 389.3, 112.4)">n</text><text xml:space="preserve" font-family="ChalkboardSE-Regular,Chalkboard SE" font-size="36.0" fill="#FEFFFF" transform="matrix(1.00, 0.00, -0.00, -1.00, 408.5, 112.4)">o</text><text xml:space="preserve" font-family="ChalkboardSE-Regular,Chalkboard SE" font-size="36.0" fill="#FEFFFF" transform="matrix(1.00, 0.00, -0.00, -1.00, 427.0, 112.4)">n</text><text xml:space="preserve" font-family="ChalkboardSE-Regular,Chalkboard SE" font-size="36.0" fill="#FEFFFF" transform="matrix(1.00, 0.00, -0.00, -1.00, 445.4, 112.4)">y</text><text xml:space="preserve" font-family="ChalkboardSE-Regular,Chalkboard SE" font-size="36.0" fill="#FEFFFF" transform="matrix(1.00, 0.00, -0.00, -1.00, 464.7, 112.4)">m</text><text xml:space="preserve" font-family="ChalkboardSE-Regular,Chalkboard SE" font-size="36.0" fill="#FEFFFF" transform="matrix(1.00, 0.00, -0.00, -1.00, 491.2, 112.4)">o</text><text xml:space="preserve" font-family="ChalkboardSE-Regular,Chalkboard SE" font-size="36.0" fill="#FEFFFF" transform="matrix(1.00, 0.00, -0.00, -1.00, 509.9, 112.4)">u</text><text xml:space="preserve" font-family="ChalkboardSE-Regular,Chalkboard SE" font-size="36.0" fill="#FEFFFF" transform="matrix(1.00, 0.00, -0.00, -1.00, 530.0, 112.4)">s</text><text xml:space="preserve" font-family="ChalkboardSE-Regular,Chalkboard SE" font-size="36.0" fill="#FEFFFF" transform="matrix(1.00, 0.00, -0.00, -1.00, 545.5, 112.4)"> </text><text xml:space="preserve" font-family="ChalkboardSE-Regular,Chalkboard SE" font-size="36.0" fill="#FEFFFF" transform="matrix(1.00, 0.00, -0.00, -1.00, 559.2, 112.4)">f</text><text xml:space="preserve" font-family="ChalkboardSE-Regular,Chalkboard SE" font-size="36.0" fill="#FEFFFF" transform="matrix(1.00, 0.00, -0.00, -1.00, 574.8, 112.4)">u</text><text xml:space="preserve" font-family="ChalkboardSE-Regular,Chalkboard SE" font-size="36.0" fill="#FEFFFF" transform="matrix(1.00, 0.00, -0.00, -1.00, 594.3, 112.4)">n</text><text xml:space="preserve" font-family="ChalkboardSE-Regular,Chalkboard SE" font-size="36.0" fill="#FEFFFF" transform="matrix(1.00, 0.00, -0.00, -1.00, 612.7, 112.4)">c</text><text xml:space="preserve" font-family="ChalkboardSE-Regular,Chalkboard SE" font-size="36.0" fill="#FEFFFF" transform="matrix(1.00, 0.00, -0.00, -1.00, 629.2, 112.4)">t</text><text xml:space="preserve" font-family="ChalkboardSE-Regular,Chalkboard SE" font-size="36.0" fill="#FEFFFF" transform="matrix(1.00, 0.00, -0.00, -1.00, 645.9, 112.4)">i</text><text xml:space="preserve" font-family="ChalkboardSE-Regular,Chalkboard SE" font-size="36.0" fill="#FEFFFF" transform="matrix(1.00, 0.00, -0.00, -1.00, 654.9, 112.4)">o</text><text xml:space="preserve" font-family="ChalkboardSE-Regular,Chalkboard SE" font-size="36.0" fill="#FEFFFF" transform="matrix(1.00, 0.00, -0.00, -1.00, 673.3, 112.4)">n</text><image xlink:href="0B4BF03C91F67BD996004EF5C9B26CD8.jpeg" width="275.00" height="183.00" transform="matrix(0.76, 0.00, -0.00, -0.76, 719.4, 178.8)"></image><image xlink:href="F64CCF8463F009BFDAE647D2AD1A09EE.png" width="370.00" height="193.00" transform="matrix(1.86, 0.00, -0.00, -1.86, 167.3, 563.8)"></image></g></svg>