<?xml version="1.0" encoding="UTF-8" standalone="no"?><svg xmlns="http://www.w3.org/2000/svg" xmlns:xlink="http://www.w3.org/1999/xlink" clip-rule="evenodd" stroke-miterlimit="10" viewBox="0 0 1024 768"><desc>SVG generated by Keynote</desc><defs><pattern id="patternP1" patternUnits="userSpaceOnUse" width="256" height="256" viewBox="0 0 256 256"><image xlink:href="6F8357FA1FAA72521781216D197C7995.png" width="256.00" height="256.00"></image></pattern></defs><g transform="matrix(1.00, 0.00, -0.00, -1.00, 0.0, 768.0)"><g><clipPath id="clip0x6080008bf2c0"><path d="M 0.0 768.0 L 1024.0 768.0 L 1024.0 0.0 L 0.0 0.0 Z M 0.0 768.0 "></path></clipPath><g clip-path="url(#clip0x6080008bf2c0)"><path d="M 0.0 0.0 L 1024.0 0.0 L 1024.0 768.0 L 0.0 768.0 Z M 0.0 0.0 " fill="url(#patternP1)"></path></g></g><text xml:space="preserve" font-family="Chalkboard,Chalkboard" font-size="50.0" fill="#FEFFFF" transform="matrix(1.00, 0.00, -0.00, -1.00, 166.4, 335.9)">E</text><text xml:space="preserve" font-family="Chalkboard,Chalkboard" font-size="50.0" fill="#FEFFFF" transform="matrix(1.00, 0.00, -0.00, -1.00, 193.8, 335.9)">s</text><text xml:space="preserve" font-family="Chalkboard,Chalkboard" font-size="50.0" fill="#FEFFFF" transform="matrix(1.00, 0.00, -0.00, -1.00, 215.3, 335.9)">s</text><text xml:space="preserve" font-family="Chalkboard,Chalkboard" font-size="50.0" fill="#FEFFFF" transform="matrix(1.00, 0.00, -0.00, -1.00, 236.9, 335.9)">e</text><text xml:space="preserve" font-family="Chalkboard,Chalkboard" font-size="50.0" fill="#FEFFFF" transform="matrix(1.00, 0.00, -0.00, -1.00, 263.2, 335.9)">n</text><text xml:space="preserve" font-family="Chalkboard,Chalkboard" font-size="50.0" fill="#FEFFFF" transform="matrix(1.00, 0.00, -0.00, -1.00, 286.8, 335.9)">t</text><text xml:space="preserve" font-family="Chalkboard,Chalkboard" font-size="50.0" fill="#FEFFFF" transform="matrix(1.00, 0.00, -0.00, -1.00, 310.0, 335.9)">i</text><text xml:space="preserve" font-family="Chalkboard,Chalkboard" font-size="50.0" fill="#FEFFFF" transform="matrix(1.00, 0.00, -0.00, -1.00, 321.4, 335.9)">a</text><text xml:space="preserve" font-family="Chalkboard,Chalkboard" font-size="50.0" fill="#FEFFFF" transform="matrix(1.00, 0.00, -0.00, -1.00, 347.8, 335.9)">l</text><text xml:space="preserve" font-family="Chalkboard,Chalkboard" font-size="50.0" fill="#FEFFFF" transform="matrix(1.00, 0.00, -0.00, -1.00, 362.8, 335.9)">s</text><text xml:space="preserve" font-family="Chalkboard,Chalkboard" font-size="50.0" fill="#FEFFFF" transform="matrix(1.00, 0.00, -0.00, -1.00, 384.3, 335.9)"> </text><text xml:space="preserve" font-family="Chalkboard,Chalkboard" font-size="50.0" fill="#FEFFFF" transform="matrix(1.00, 0.00, -0.00, -1.00, 403.4, 335.9)">f</text><text xml:space="preserve" font-family="Chalkboard,Chalkboard" font-size="50.0" fill="#FEFFFF" transform="matrix(1.00, 0.00, -0.00, -1.00, 423.5, 335.9)">o</text><text xml:space="preserve" font-family="Chalkboard,Chalkboard" font-size="50.0" fill="#FEFFFF" transform="matrix(1.00, 0.00, -0.00, -1.00, 448.7, 335.9)">r</text><text xml:space="preserve" font-family="Chalkboard,Chalkboard" font-size="50.0" fill="#FEFFFF" transform="matrix(1.00, 0.00, -0.00, -1.00, 470.5, 335.9)"> </text><text xml:space="preserve" font-family="Chalkboard,Chalkboard" font-size="50.0" fill="#FEFFFF" transform="matrix(1.00, 0.00, -0.00, -1.00, 489.6, 335.9)">r</text><text xml:space="preserve" font-family="Chalkboard,Chalkboard" font-size="50.0" fill="#FEFFFF" transform="matrix(1.00, 0.00, -0.00, -1.00, 510.4, 335.9)">e</text><text xml:space="preserve" font-family="Chalkboard,Chalkboard" font-size="50.0" fill="#FEFFFF" transform="matrix(1.00, 0.00, -0.00, -1.00, 536.7, 335.9)">a</text><text xml:space="preserve" font-family="Chalkboard,Chalkboard" font-size="50.0" fill="#FEFFFF" transform="matrix(1.00, 0.00, -0.00, -1.00, 563.1, 335.9)">l</text><text xml:space="preserve" font-family="Chalkboard,Chalkboard" font-size="50.0" fill="#FEFFFF" transform="matrix(1.00, 0.00, -0.00, -1.00, 578.1, 335.9)"> </text><text xml:space="preserve" font-family="Chalkboard,Chalkboard" font-size="50.0" fill="#FEFFFF" transform="matrix(1.00, 0.00, -0.00, -1.00, 593.8, 335.9)">A</text><text xml:space="preserve" font-family="Chalkboard,Chalkboard" font-size="50.0" fill="#FEFFFF" transform="matrix(1.00, 0.00, -0.00, -1.00, 626.2, 335.9)">p</text><text xml:space="preserve" font-family="Chalkboard,Chalkboard" font-size="50.0" fill="#FEFFFF" transform="matrix(1.00, 0.00, -0.00, -1.00, 652.6, 335.9)">p</text><text xml:space="preserve" font-family="Chalkboard,Chalkboard" font-size="50.0" fill="#FEFFFF" transform="matrix(1.00, 0.00, -0.00, -1.00, 679.0, 335.9)">l</text><text xml:space="preserve" font-family="Chalkboard,Chalkboard" font-size="50.0" fill="#FEFFFF" transform="matrix(1.00, 0.00, -0.00, -1.00, 691.8, 335.9)">i</text><text xml:space="preserve" font-family="Chalkboard,Chalkboard" font-size="50.0" fill="#FEFFFF" transform="matrix(1.00, 0.00, -0.00, -1.00, 703.1, 335.9)">c</text><text xml:space="preserve" font-family="Chalkboard,Chalkboard" font-size="50.0" fill="#FEFFFF" transform="matrix(1.00, 0.00, -0.00, -1.00, 725.9, 335.9)">a</text><text xml:space="preserve" font-family="Chalkboard,Chalkboard" font-size="50.0" fill="#FEFFFF" transform="matrix(1.00, 0.00, -0.00, -1.00, 749.2, 335.9)">t</text><text xml:space="preserve" font-family="Chalkboard,Chalkboard" font-size="50.0" fill="#FEFFFF" transform="matrix(1.00, 0.00, -0.00, -1.00, 772.4, 335.9)">i</text><text xml:space="preserve" font-family="Chalkboard,Chalkboard" font-size="50.0" fill="#FEFFFF" transform="matrix(1.00, 0.00, -0.00, -1.00, 784.9, 335.9)">o</text><text xml:space="preserve" font-family="Chalkboard,Chalkboard" font-size="50.0" fill="#FEFFFF" transform="matrix(1.00, 0.00, -0.00, -1.00, 810.5, 335.9)">n</text><text xml:space="preserve" font-family="Chalkboard,Chalkboard" font-size="50.0" fill="#FEFFFF" transform="matrix(1.00, 0.00, -0.00, -1.00, 836.1, 335.9)">s</text><text xml:space="preserve" font-family="Chalkboard,Chalkboard" font-size="36.0" fill="#FEFFFF" transform="matrix(1.00, 0.00, -0.00, -1.00, 399.5, 213.3)">b</text><text xml:space="preserve" font-family="Chalkboard,Chalkboard" font-size="36.0" fill="#FEFFFF" transform="matrix(1.00, 0.00, -0.00, -1.00, 418.5, 213.3)">y</text><text xml:space="preserve" font-family="Chalkboard,Chalkboard" font-size="36.0" fill="#FEFFFF" transform="matrix(1.00, 0.00, -0.00, -1.00, 437.8, 213.3)"> </text><text xml:space="preserve" font-family="Chalkboard,Chalkboard" font-size="36.0" fill="#FEFFFF" transform="matrix(1.00, 0.00, -0.00, -1.00, 451.6, 213.3)">@</text><text xml:space="preserve" font-family="Chalkboard,Chalkboard" font-size="36.0" fill="#FEFFFF" transform="matrix(1.00, 0.00, -0.00, -1.00, 481.0, 213.3)">d</text><text xml:space="preserve" font-family="Chalkboard,Chalkboard" font-size="36.0" fill="#FEFFFF" transform="matrix(1.00, 0.00, -0.00, -1.00, 499.5, 213.3)">i</text><text xml:space="preserve" font-family="Chalkboard,Chalkboard" font-size="36.0" fill="#FEFFFF" transform="matrix(1.00, 0.00, -0.00, -1.00, 508.4, 213.3)">e</text><text xml:space="preserve" font-family="Chalkboard,Chalkboard" font-size="36.0" fill="#FEFFFF" transform="matrix(1.00, 0.00, -0.00, -1.00, 527.4, 213.3)">g</text><text xml:space="preserve" font-family="Chalkboard,Chalkboard" font-size="36.0" fill="#FEFFFF" transform="matrix(1.00, 0.00, -0.00, -1.00, 547.2, 213.3)">o</text><text xml:space="preserve" font-family="Chalkboard,Chalkboard" font-size="36.0" fill="#FEFFFF" transform="matrix(1.00, 0.00, -0.00, -1.00, 565.3, 213.3)">r</text><text xml:space="preserve" font-family="Chalkboard,Chalkboard" font-size="36.0" fill="#FEFFFF" transform="matrix(1.00, 0.00, -0.00, -1.00, 578.7, 213.3)">a</text><text xml:space="preserve" font-family="Chalkboard,Chalkboard" font-size="36.0" fill="#FEFFFF" transform="matrix(1.00, 0.00, -0.00, -1.00, 597.9, 213.3)">m</text><image xlink:href="E658F8653132F20C7B3510D4A3E101F6.png" width="560.00" height="192.00" transform="matrix(1.00, 0.00, -0.00, -1.00, 232.0, 637.6)"></image></g></svg>